<svg data-v-70b83f88="" version="1.0" xmlns="http://www.w3.org/2000/svg" xmlns:xlink="http://www.w3.org/1999/xlink" width="100%" height="100%" viewBox="0 0 340.000000 250.000000" preserveAspectRatio="xMidYMid meet" color-interpolation-filters="sRGB" style="margin: auto;"> <rect data-v-70b83f88="" x="0" y="0" width="100%" height="100%" fill="#0a0619" fill-opacity="0" class="background"></rect> <rect data-v-70b83f88="" x="0" y="0" width="100%" height="100%" fill="url(#watermark)" fill-opacity="1" class="watermarklayer"></rect> <g data-v-70b83f88="" fill="#ff9a9e" class="j-b-g-c iconbgsvg" mask="url(#c3c9e24f-4ac4-4e5f-b1c3-3924070f702b)" transform="translate(85,40.54473876953125)"><g data-d="container" transform="translate(0,0)"><g><rect fill="#ff9a9e" fill-opacity="0" stroke-width="2" x="0" y="0" width="170" height="168.910525" class="image-rect"></rect> <svg filter="url(#colors3804821531)" x="0" y="0" width="170" height="168.910525" filtersec="colorsf6766754092" class="image-svg-container primary" style="overflow: visible;"><svg fill="#000000" xmlns="http://www.w3.org/2000/svg" xmlns:xlink="http://www.w3.org/1999/xlink" version="1.1" x="0px" y="0px" viewBox="-0.20632 -0.00061 64.41348 64.00061" enable-background="new 0 0 64 64" xml:space="preserve" style="overflow: visible;"><g transform="scale(1, 1) skewX(0)"><path d="M59.178,28.276c-0.132-1.09-0.04-2.357,0.059-3.699c0.063-0.863,0.209-2.867,0.052-3.352  c-0.201-0.459-1.639-1.861-2.252-2.459c-0.966-0.942-1.878-1.832-2.507-2.742c-0.624-0.905-1.131-2.072-1.669-3.308  c-0.344-0.789-1.146-2.631-1.51-2.986c-0.392-0.313-2.315-0.887-3.138-1.132c-1.293-0.386-2.515-0.75-3.491-1.263  c-0.973-0.51-1.965-1.308-3.014-2.15c-0.677-0.542-2.242-1.8-2.727-1.945c0.012,0.004-0.057-0.005-0.192-0.004  c-0.763,0-2.007,0.243-3.105,0.458c-1.33,0.262-2.582,0.507-3.685,0.507c-1.1,0-2.351-0.245-3.674-0.505  c-1.102-0.216-2.349-0.46-3.114-0.46c-0.125,0-0.194,0.007-0.217,0.009c-0.464,0.143-1.972,1.354-2.695,1.936  c-1.053,0.846-2.047,1.644-3.022,2.156c-0.975,0.512-2.197,0.876-3.49,1.262c-0.822,0.245-2.747,0.819-3.145,1.138  c-0.357,0.35-1.159,2.191-1.501,2.978c-0.54,1.238-1.047,2.405-1.673,3.313c-0.627,0.907-1.539,1.797-2.505,2.739  c-0.614,0.598-2.051,2-2.255,2.466c-0.154,0.477-0.007,2.479,0.055,3.333c0.098,1.348,0.19,2.619,0.058,3.713  s-0.527,2.307-0.945,3.592c-0.266,0.817-0.887,2.727-0.851,3.232c0.085,0.491,1.146,2.197,1.598,2.926  c0.712,1.146,1.385,2.229,1.776,3.259c0.389,1.026,0.604,2.28,0.83,3.605c0.146,0.857,0.485,2.838,0.753,3.271  c0.305,0.396,2.037,1.415,2.777,1.851c1.163,0.684,2.261,1.329,3.085,2.059c0.822,0.728,1.595,1.739,2.414,2.811  c0.524,0.688,1.744,2.283,2.181,2.542c0.454,0.209,2.458,0.306,3.314,0.348c1.35,0.064,2.625,0.125,3.693,0.39  c1.069,0.263,2.226,0.8,3.45,1.369c0.834,0.388,2.546,1.184,3.102,1.232c0.557-0.049,2.272-0.846,3.101-1.23  c1.226-0.569,2.384-1.108,3.45-1.371c1.071-0.265,2.346-0.325,3.696-0.39c0.854-0.042,2.859-0.139,3.321-0.353  c0.429-0.253,1.602-1.787,2.165-2.525c0.824-1.079,1.598-2.093,2.424-2.824c0.823-0.728,1.921-1.373,3.084-2.057  c0.739-0.436,2.471-1.454,2.781-1.859c0.264-0.425,0.602-2.405,0.746-3.251c0.228-1.336,0.442-2.59,0.832-3.616  c0.392-1.029,1.063-2.112,1.775-3.259c0.453-0.729,1.514-2.435,1.6-2.935c0.035-0.498-0.563-2.337-0.851-3.222  C59.705,30.585,59.311,29.372,59.178,28.276z"></path><path d="M62.39,27.888c-0.233-1.938,0.617-5.98-0.075-7.806c-0.691-1.825-4.011-4.288-5.12-5.894  c-1.108-1.608-2.233-5.583-3.695-6.877c-1.46-1.294-5.544-1.933-7.272-2.84s-4.572-3.904-6.468-4.372  C37.864-0.368,33.952,0.964,32,0.964c-1.952,0-5.863-1.333-7.759-0.865c-1.895,0.467-4.739,3.464-6.467,4.372  c-1.729,0.907-5.813,1.546-7.273,2.84c-1.462,1.294-2.587,5.27-3.695,6.877c-1.109,1.606-4.429,4.068-5.121,5.894  c-0.692,1.826,0.161,5.869-0.075,7.806c-0.235,1.938-2.031,5.661-1.795,7.6c0.235,1.938,2.869,5.122,3.561,6.947  c0.692,1.824,0.833,5.954,1.943,7.561c1.108,1.606,4.92,3.204,6.382,4.498c1.46,1.293,3.506,4.886,5.233,5.793  s5.846,0.549,7.741,1.017C26.569,61.77,30.049,64,32,64c1.952,0,5.431-2.23,7.327-2.697c1.895-0.468,6.013-0.109,7.74-1.017  c1.729-0.907,3.773-4.5,5.233-5.793c1.462-1.294,5.274-2.892,6.382-4.498c1.109-1.606,1.251-5.736,1.943-7.561  c0.691-1.825,3.325-5.01,3.561-6.947C64.421,33.549,62.625,29.826,62.39,27.888z M59.847,38.32  c-0.697,1.123-1.356,2.184-1.729,3.163c-0.37,0.977-0.579,2.203-0.802,3.503c-0.244,1.428-0.529,2.984-0.839,3.482  c-0.361,0.475-1.715,1.292-2.957,2.022c-1.139,0.669-2.214,1.301-2.997,1.994c-0.785,0.695-1.543,1.688-2.345,2.738  c-0.877,1.147-1.85,2.39-2.354,2.687c-0.541,0.251-2.116,0.345-3.553,0.414c-1.321,0.063-2.569,0.124-3.589,0.376  c-1.015,0.25-2.148,0.777-3.349,1.334c-1.294,0.603-2.725,1.247-3.318,1.284H32l-0.018-0.001c-0.591-0.036-2.019-0.681-3.31-1.28  c-1.208-0.561-2.34-1.087-3.357-1.337c-1.017-0.252-2.265-0.313-3.587-0.376c-1.437-0.069-3.013-0.163-3.545-0.41  c-0.514-0.302-1.487-1.546-2.359-2.689c-0.806-1.056-1.563-2.046-2.346-2.739s-1.859-1.325-2.997-1.994  c-1.242-0.73-2.596-1.549-2.953-2.016c-0.315-0.507-0.6-2.062-0.842-3.479c-0.224-1.31-0.433-2.536-0.803-3.513  c-0.372-0.979-1.032-2.04-1.729-3.163c-0.76-1.223-1.579-2.575-1.678-3.153c-0.043-0.593,0.428-2.1,0.873-3.466  c0.41-1.261,0.796-2.45,0.923-3.49c0.126-1.04,0.036-2.287-0.061-3.605c-0.105-1.434-0.202-3.012-0.02-3.571  c0.238-0.546,1.355-1.663,2.386-2.667c0.946-0.923,1.839-1.794,2.435-2.657c0.595-0.863,1.092-2.006,1.62-3.217  c0.575-1.322,1.224-2.765,1.644-3.174c0.465-0.374,1.974-0.842,3.353-1.254c1.267-0.377,2.463-0.733,3.392-1.221  c0.927-0.487,1.9-1.269,2.931-2.097c1.121-0.9,2.363-1.875,2.926-2.044l0.047-0.014l0.049,0.003  c0.003-0.004,0.089-0.012,0.238-0.012c0.819,0,2.094,0.25,3.218,0.469c1.299,0.255,2.523,0.495,3.57,0.495  c1.048,0,2.274-0.241,3.571-0.495c1.13-0.221,2.402-0.469,3.219-0.469c0.221,0,0.315,0.018,0.332,0.021  c0.563,0.167,1.805,1.143,2.927,2.044c1.036,0.832,2.007,1.612,2.933,2.098c0.929,0.488,2.125,0.844,3.392,1.222  c1.379,0.412,2.889,0.881,3.347,1.249c0.427,0.415,1.074,1.857,1.648,3.177c0.528,1.212,1.026,2.356,1.619,3.217  c0.598,0.865,1.49,1.736,2.437,2.659c1.03,1.004,2.149,2.122,2.384,2.661c0.185,0.567,0.088,2.146-0.018,3.581  c-0.096,1.321-0.187,2.563-0.061,3.599c0.127,1.042,0.513,2.231,0.922,3.489c0.446,1.369,0.917,2.877,0.874,3.462  C61.424,35.747,60.606,37.098,59.847,38.32z"></path></g></svg></svg> <defs><filter id="colors3804821531"><feColorMatrix type="matrix" values="0 0 0 0 0.19921875  0 0 0 0 0.19921875  0 0 0 0 0.19921875  0 0 0 1 0" class="icon-fecolormatrix"></feColorMatrix></filter> <filter id="colorsf6766754092"><feColorMatrix type="matrix" values="0 0 0 0 0.99609375  0 0 0 0 0.99609375  0 0 0 0 0.99609375  0 0 0 1 0" class="icon-fecolormatrix"></feColorMatrix></filter> <filter id="colorsb2188926880"><feColorMatrix type="matrix" values="0 0 0 0 0  0 0 0 0 0  0 0 0 0 0  0 0 0 1 0" class="icon-fecolormatrix"></feColorMatrix></filter></defs></g><rect v-gra="id" width="182" height="180.9105224609375" transform="translate(-6, -6)" style="pointer-events:none;" fill="url(#c_xjBfHHuC154-vsiq7uZ)"></rect></g> <g data-d="icon-text" hollow-target="textRect" transform="translate(32.665000915527344,41.41667556762695)"><g data-d="icon" class="iconsvg-imagesvg" transform="matrix(1,0,0,1,34.834999084472656,0)" mask="url(#790ae9d6-5bc5-45ab-8df8-ec4c2093e1d4)" opacity="1"><g><!----> <svg filter="url(#colors2349813771)" x="0" y="0" width="35" height="38.27730265316389" filtersec="colorsf6151990412" class="image-svg-svg primary" style="overflow: visible;"><svg version="1.1" id="Capa_1" xmlns="http://www.w3.org/2000/svg" xmlns:xlink="http://www.w3.org/1999/xlink" x="0px" y="0px" viewBox="1.1957494020462036 0 25.523374557495117 27.913249969482422" style="enable-background:new 0 0 27.914 27.914;" xml:space="preserve"><g> <g> <path d="M17.814,18.104c-0.686-2.479-0.686-3.427,0-5.905c2.34-0.884,6.833-2.667,7.856-3.692 c1.399-1.399,1.399-3.669-0.001-5.068c-1.398-1.399-3.668-1.399-5.067,0c-1.025,1.024-2.808,5.516-3.692,7.856 c-2.478,0.686-3.426,0.686-5.906,0c-0.885-2.341-2.667-6.831-3.69-7.855c-1.4-1.399-3.669-1.399-5.069,0 c-1.399,1.399-1.399,3.669,0,5.068c1.024,1.025,5.516,2.808,7.857,3.692c0.685,2.478,0.685,3.427-0.001,5.904 c-2.341,0.886-6.832,2.668-7.855,3.691c-1.399,1.4-1.399,3.668,0,5.069c1.399,1.399,3.669,1.399,5.069,0 c1.023-1.024,2.807-5.517,3.69-7.857c2.479-0.685,3.427-0.684,5.906,0.001c0.884,2.342,2.667,6.832,3.69,7.856 c1.399,1.399,3.669,1.399,5.068,0c1.4-1.4,1.4-3.668,0-5.068C24.646,20.77,20.155,18.988,17.814,18.104z"></path> <ellipse cx="13.958" cy="3.583" rx="2.986" ry="3.583"></ellipse> </g></g></svg></svg> <defs><filter id="colors2349813771"><feColorMatrix type="matrix" values="0 0 0 0 0.19921875  0 0 0 0 0.19921875  0 0 0 0 0.19921875  0 0 0 1 0" class="icon-fecolormatrix"></feColorMatrix></filter> <filter id="colorsf6151990412"><feColorMatrix type="matrix" values="0 0 0 0 0.99609375  0 0 0 0 0.99609375  0 0 0 0 0.99609375  0 0 0 1 0" class="icon-fecolormatrix"></feColorMatrix></filter> <filter id="colorsb4056083888"><feColorMatrix type="matrix" values="0 0 0 0 0  0 0 0 0 0  0 0 0 0 0  0 0 0 1 0" class="icon-fecolormatrix"></feColorMatrix></filter></defs></g><rect v-gra="id" width="47" height="50.277217864990234" transform="translate(-6, -6)" style="pointer-events:none;" fill="url(#c_xjBfHHuC154-vsiq7uZ)"></rect></g> <g data-d="text" transform="translate(0,42.277217864990234)"><g data-gra="path-name" fill-rule="" class="tp-name iconsvg-namesvg" transform="matrix(1,0,0,1,0,0)" fill="url(#21785166-dc7b-4845-83a0-8bb53e5b4e09)" opacity="1"><g transform="scale(1)"><g><path d="M4.89 2.26Q3.59 2.19 3.12 1.65 2.66 1.12 2.66 0.16L2.66 0.16Q2.66-1.2 3.33-3.38 4.01-5.57 5.08-8.1L5.08-8.1Q2.55-7.86 1.9-7.76L1.9-7.76Q2.08-9.81 5.73-9.92L5.73-9.92Q7.31-14.29 8.56-16.84L8.56-16.84Q8.15-16.89 7.63-16.89L7.63-16.89Q5.36-16.89 4.5-16.2 3.64-15.51 3.64-14.06L3.64-14.06Q3.64-13.43 3.76-12.91 3.88-12.39 4.17-11.71L4.17-11.71Q1.9-12.08 1.9-13.98L1.9-13.98Q1.9-15.31 2.89-16.36 3.88-17.42 5.61-18.01 7.34-18.61 9.45-18.61L9.45-18.61Q10.23-18.61 11.14-18.53 12.05-18.46 12.31-18.43L12.31-18.43Q13.85-18.25 14.79-18.25L14.79-18.25Q15.98-18.25 17.42-18.64L17.42-18.64Q16.22-17.31 15.42-16.82 14.63-16.32 13.82-16.32L13.82-16.32Q13.33-16.32 12.18-16.5L12.18-16.5Q10.59-16.71 10.07-16.74L10.07-16.74Q9.61-15.62 8.97-13.73 8.33-11.84 7.73-9.89L7.73-9.89Q8.36-9.84 8.85-9.79 9.35-9.74 9.74-9.71L9.74-9.71Q11.56-9.5 12.6-9.48L12.6-9.48Q12.18-8.9 11.71-8.67 11.25-8.43 10.33-8.36 9.42-8.28 7.24-8.23L7.24-8.23Q6.79-6.64 6.17-4.56L6.17-4.56Q5.47-2.13 5.18-0.55 4.89 1.04 4.89 2.26L4.89 2.26ZM13.51 0.83Q12.44 0.83 11.96 0.13 11.48-0.57 11.48-1.61L11.48-1.61Q11.48-2.71 11.94-3.88 12.39-5.05 13.12-5.83 13.85-6.61 14.6-6.61L14.6-6.61Q14.92-6.61 15.41-6.4L15.41-6.4Q15.57-7.6 16.26-8.38 16.95-9.16 18.2-9.16L18.2-9.16Q19.24-9.16 19.73-8.58 20.23-7.99 20.23-7.05L20.23-7.05Q20.23-6.14 19.74-4.97 19.26-3.8 18.51-2.63L18.51-2.63Q18.82-2.47 19.24-2.47L19.24-2.47Q19.97-2.47 20.8-2.95 21.63-3.44 22.07-4.43L22.07-4.43 22.54-4.09Q22-2.84 21.07-2.19 20.15-1.54 19.16-1.54L19.16-1.54Q18.56-1.54 17.86-1.77L17.86-1.77Q16.89-0.62 15.75 0.1 14.6 0.83 13.51 0.83L13.51 0.83ZM17.62-3.18Q18.27-4.14 18.7-5.18 19.13-6.22 19.13-7.05L19.13-7.05Q19.13-8.2 18.4-8.2L18.4-8.2Q18.07-8.2 17.7-7.86 17.34-7.52 17.1-6.96 16.87-6.4 16.87-5.73L16.87-5.73Q16.87-5.13 17.08-4.36 17.28-3.59 17.62-3.18L17.62-3.18ZM14.45-0.49Q14.92-0.49 15.59-1.02 16.27-1.54 16.95-2.34L16.95-2.34Q15.46-3.64 15.38-6.17L15.38-6.17Q15.07-6.01 14.63-5.21 14.19-4.4 13.87-3.41 13.56-2.42 13.56-1.69L13.56-1.69Q13.56-0.49 14.45-0.49L14.45-0.49ZM23.45 0.78Q22.6 0.78 22.02-0.03 21.45-0.83 21.45-1.93L21.45-1.93Q21.45-2.86 21.87-4.27 22.28-5.67 22.84-6.72 23.4-7.76 23.82-7.76L23.82-7.76Q24-7.76 24.38-7.56 24.76-7.37 25.04-7.08L25.04-7.08Q24.5-6.27 23.91-4.76 23.32-3.25 23.32-2.16L23.32-2.16Q23.32-1.67 23.47-1.13 23.61-0.6 24.11-0.6L24.11-0.6Q25.07-0.6 26.41-2.75 27.75-4.89 28.71-7.11L28.71-7.11Q30.27-6.85 30.27-6.22L30.27-6.22Q30.27-6.17 29.96-5.47L29.96-5.47Q29.42-4.19 29.03-3.1 28.63-2 28.63-1.2L28.63-1.2Q28.63-0.29 29.34-0.29L29.34-0.29Q29.88-0.29 30.65-0.79 31.42-1.3 32.23-2.25 33.03-3.2 33.63-4.45L33.63-4.45 34.02-4.14Q33.45-2.73 32.54-1.61 31.63-0.49 30.57 0.14 29.52 0.78 28.56 0.78L28.56 0.78Q27.41 0.78 27.09-0.01 26.76-0.81 26.76-2.13L26.76-2.13Q25.88-0.78 25.09 0 24.31 0.78 23.45 0.78L23.45 0.78ZM41.73 0.52Q40.74 0.52 40.19 0.03 39.65-0.47 39.65-1.28L39.65-1.28Q39.65-1.61 39.76-2.06 39.88-2.5 40.01-2.94L40.01-2.94Q40.38-4.14 40.38-4.71L40.38-4.71Q40.38-5.23 40.11-5.48 39.85-5.73 39.46-5.73L39.46-5.73Q38.08-5.73 36.68-4 35.27-2.26 33.66 0.39L33.66 0.39Q32.54 0.39 31.97-0.36L31.97-0.36 32.2-1.02Q33.74-4.74 33.74-6.53L33.74-6.53Q33.95-6.77 34.34-6.96 34.73-7.16 35.09-7.16L35.09-7.16Q35.53-7.16 35.77-6.95 36-6.74 36-6.38L36-6.38Q36-5.67 35.56-4.06L35.56-4.06Q36.73-5.62 37.99-6.61 39.26-7.6 40.48-7.6L40.48-7.6Q41.52-7.6 42.09-6.89 42.67-6.17 42.67-5.18L42.67-5.18Q42.67-4.61 42.52-4.09 42.38-3.57 42.09-2.92L42.09-2.92Q41.65-1.82 41.65-1.28L41.65-1.28Q41.65-0.89 41.83-0.7 42.02-0.52 42.28-0.52L42.28-0.52Q43.13-0.52 44.14-1.71 45.14-2.89 45.95-4.5L45.95-4.5 46.39-4.14Q45.45-1.98 44.32-0.73 43.19 0.52 41.73 0.52L41.73 0.52ZM47.07 0.78Q46.21 0.78 45.53 0.18 44.85-0.42 44.85-1.56L44.85-1.56Q44.85-3.02 45.97-4.93 47.09-6.85 48.81-8.2 50.53-9.55 52.25-9.55L52.25-9.55Q53.52-9.55 53.52-8.72L53.52-8.72Q53.52-8.3 53.21-8.12L53.21-8.12Q53-8.41 52.3-8.41L52.3-8.41Q50.97-8.41 49.77-7.25 48.58-6.09 47.83-4.53 47.09-2.97 47.09-1.93L47.09-1.93Q47.09-1.41 47.3-1.12 47.51-0.83 47.92-0.83L47.92-0.83Q48.65-0.83 49.63-1.68 50.61-2.53 51.63-4.09 52.66-5.65 53.47-7.73L53.47-7.73Q55.5-12.94 56.91-15.84 58.31-18.74 59.35-18.74L59.35-18.74Q59.64-18.74 59.86-18.52 60.08-18.3 60.08-17.96L60.08-17.96Q60.08-17.52 59.68-16.61 59.27-15.7 58.31-13.74L58.31-13.74Q56.41-9.89 55.29-7.02 54.17-4.14 54.17-1.8L54.17-1.8Q54.17-1.17 54.29-0.95 54.41-0.73 54.69-0.73L54.69-0.73Q55.58-0.73 56.72-1.77 57.87-2.81 58.73-4.58L58.73-4.58 59.22-4.17Q58.36-2.03 56.85-0.68 55.34 0.68 53.86 0.68L53.86 0.68Q52.84 0.68 52.4 0.05 51.96-0.57 51.96-1.59L51.96-1.59Q51.96-2.19 52.17-3.28L52.17-3.28Q50.89-1.43 49.54-0.33 48.18 0.78 47.07 0.78L47.07 0.78ZM59.51 1.22Q58.6 1.22 57.99 0.62 57.37 0.03 57.37-1.07L57.37-1.07Q57.37-2.58 58.48-4.45 59.59-6.33 61.3-7.63 63.02-8.93 64.74-8.93L64.74-8.93Q65.89-8.93 66.65-8.34 67.42-7.76 67.42-6.85L67.42-6.85Q67.42-5.65 65.94-5.6L65.94-5.6Q66.88-5.31 66.88-4.82L66.88-4.82Q66.88-4.63 66.69-4.27 66.51-3.9 66.28-3.51L66.28-3.51Q65.86-2.84 65.63-2.33 65.39-1.82 65.39-1.38L65.39-1.38Q65.39-0.99 65.59-0.72 65.78-0.44 66.17-0.44L66.17-0.44Q66.9-0.44 68.03-1.46 69.17-2.47 70.23-4.5L70.23-4.5 70.73-4.01Q69.76-1.85 68.33-0.53 66.9 0.78 65.44 0.78L65.44 0.78Q64.4 0.78 63.84 0.09 63.28-0.6 63.28-1.48L63.28-1.48Q62.11-0.08 61.28 0.57 60.45 1.22 59.51 1.22L59.51 1.22ZM60.05-0.1Q60.97-0.1 62.18-1.42 63.39-2.73 64.92-4.84L64.92-4.84 65.44-5.54Q65.52-5.67 65.65-5.67L65.65-5.67 65.76-5.65Q65.89-6.07 65.89-6.61L65.89-6.61Q65.89-7.97 64.79-7.97L64.79-7.97Q63.65-7.97 62.4-6.74 61.15-5.52 60.3-3.83 59.46-2.13 59.46-0.94L59.46-0.94Q59.46-0.49 59.6-0.3 59.74-0.1 60.05-0.1L60.05-0.1ZM71.98 1.2Q70.78 1.2 70.1 0.51 69.43-0.18 69.43-1.54L69.43-1.54Q69.43-2.55 69.82-4.13 70.21-5.7 70.86-7.47L70.86-7.47Q70.18-7.6 69.95-7.71L69.95-7.71 69.95-8.51Q70.57-8.43 71.2-8.38L71.2-8.38Q72.37-11.32 73.71-13.43 75.05-15.54 75.88-15.54L75.88-15.54Q76.17-15.54 76.39-15.33 76.61-15.12 76.61-14.79L76.61-14.79Q76.61-14.37 76.25-13.67 75.88-12.96 75.05-11.53L75.05-11.53Q73.9-9.61 73.25-8.3L73.25-8.3Q76.25-8.3 78.02-8.49L78.02-8.49 78.02-7.63Q74.95-7.31 72.78-7.31L72.78-7.31Q71.43-4.11 71.43-2.08L71.43-2.08Q71.43-1.02 71.77-0.57 72.11-0.13 72.84-0.13L72.84-0.13Q74.14-0.13 75.5-1.31 76.87-2.5 77.89-4.53L77.89-4.53 78.25-4.27Q77.18-1.85 75.49-0.33 73.8 1.2 71.98 1.2L71.98 1.2ZM82.26-10.96Q81.71-10.96 81.34-11.22 80.96-11.48 80.96-11.97L80.96-11.97Q80.96-12.57 81.62-13.03 82.29-13.48 83.04-13.48L83.04-13.48Q84.16-13.48 84.16-12.52L84.16-12.52Q84.16-11.97 83.56-11.47 82.96-10.96 82.26-10.96L82.26-10.96ZM79.19 0.78Q78.09 0.78 77.5 0.13 76.9-0.52 76.9-1.54L76.9-1.54Q76.9-2.58 77.48-4.36 78.07-6.14 78.97-7.5 79.87-8.85 80.78-8.85L80.78-8.85Q81.11-8.85 81.34-8.66 81.56-8.46 81.56-8.1L81.56-8.1Q81.56-7.86 81.35-7.46 81.14-7.05 80.67-6.3L80.67-6.3Q79.84-4.92 79.36-3.87 78.88-2.81 78.88-1.87L78.88-1.87Q78.88-1.07 79.16-0.78 79.45-0.49 80.05-0.49L80.05-0.49Q82.1-0.49 84.13-4.48L84.13-4.48 84.52-4.06Q83.61-1.77 82.21-0.49 80.8 0.78 79.19 0.78L79.19 0.78ZM85.18 0.83Q84.11 0.83 83.63 0.13 83.15-0.57 83.15-1.61L83.15-1.61Q83.15-2.71 83.6-3.88 84.06-5.05 84.78-5.83 85.51-6.61 86.27-6.61L86.27-6.61Q86.58-6.61 87.08-6.4L87.08-6.4Q87.23-7.6 87.92-8.38 88.61-9.16 89.86-9.16L89.86-9.16Q90.9-9.16 91.4-8.58 91.89-7.99 91.89-7.05L91.89-7.05Q91.89-6.14 91.41-4.97 90.93-3.8 90.17-2.63L90.17-2.63Q90.49-2.47 90.9-2.47L90.9-2.47Q91.63-2.47 92.46-2.95 93.3-3.44 93.74-4.43L93.74-4.43 94.21-4.09Q93.66-2.84 92.74-2.19 91.81-1.54 90.82-1.54L90.82-1.54Q90.23-1.54 89.52-1.77L89.52-1.77Q88.56-0.62 87.41 0.1 86.27 0.83 85.18 0.83L85.18 0.83ZM89.29-3.18Q89.94-4.14 90.37-5.18 90.8-6.22 90.8-7.05L90.8-7.05Q90.8-8.2 90.07-8.2L90.07-8.2Q89.73-8.2 89.37-7.86 89-7.52 88.77-6.96 88.53-6.4 88.53-5.73L88.53-5.73Q88.53-5.13 88.74-4.36 88.95-3.59 89.29-3.18L89.29-3.18ZM86.11-0.49Q86.58-0.49 87.26-1.02 87.93-1.54 88.61-2.34L88.61-2.34Q87.13-3.64 87.05-6.17L87.05-6.17Q86.74-6.01 86.29-5.21 85.85-4.4 85.54-3.41 85.23-2.42 85.23-1.69L85.23-1.69Q85.23-0.49 86.11-0.49L86.11-0.49ZM101.91 0.52Q100.92 0.52 100.38 0.03 99.83-0.47 99.83-1.28L99.83-1.28Q99.83-1.61 99.95-2.06 100.07-2.5 100.2-2.94L100.2-2.94Q100.56-4.14 100.56-4.71L100.56-4.71Q100.56-5.23 100.3-5.48 100.04-5.73 99.65-5.73L99.65-5.73Q98.27-5.73 96.86-4 95.46-2.26 93.84 0.39L93.84 0.39Q92.72 0.39 92.15-0.36L92.15-0.36 92.39-1.02Q93.92-4.74 93.92-6.53L93.92-6.53Q94.13-6.77 94.52-6.96 94.91-7.16 95.28-7.16L95.28-7.16Q95.72-7.16 95.95-6.95 96.19-6.74 96.19-6.38L96.19-6.38Q96.19-5.67 95.74-4.06L95.74-4.06Q96.92-5.62 98.18-6.61 99.44-7.6 100.66-7.6L100.66-7.6Q101.71-7.6 102.28-6.89 102.85-6.17 102.85-5.18L102.85-5.18Q102.85-4.61 102.71-4.09 102.56-3.57 102.28-2.92L102.28-2.92Q101.84-1.82 101.84-1.28L101.84-1.28Q101.84-0.89 102.02-0.7 102.2-0.52 102.46-0.52L102.46-0.52Q103.32-0.52 104.32-1.71 105.32-2.89 106.13-4.5L106.13-4.5 106.57-4.14Q105.64-1.98 104.5-0.73 103.37 0.52 101.91 0.52L101.91 0.52Z" transform="translate(-1.9000000953674316, 18.739999771118164)"></path></g> <!----> <!----> <!----> <!----> <!----> <!----> <!----></g></g> <g data-gra="path-slogan" fill-rule="" class="tp-slogan iconsvg-slogansvg" fill="url(#7e8663c9-2584-4289-9350-654fef837080)" transform="matrix(0.9860228517194934,0,0,0.9860228517194934,21.659829446347963,28.047522302154274)" opacity="1"><!----> <!----> <g transform="scale(1, 1)"><g transform="scale(1)"><path d="M0.90 0L0.90-6.56L1.73-6.56L1.73-0.71L4.60-0.71L4.60 0L0.90 0ZM5.76 0L5.76-6.56L6.59-6.56L6.59 0L5.76 0ZM9.75 0L9.75-5.86L7.77-5.86L7.77-6.56L12.57-6.56L12.57-5.86L10.59-5.86L10.59 0L9.75 0ZM15.11 0L15.11-5.86L13.13-5.86L13.13-6.56L17.93-6.56L17.93-5.86L15.95-5.86L15.95 0L15.11 0ZM19.11 0L19.11-6.56L19.94-6.56L19.94-0.71L22.81-0.71L22.81 0L19.11 0ZM23.97 0L23.97-6.56L27.75-6.56L27.75-5.86L24.80-5.86L24.80-3.80L27.29-3.80L27.29-3.09L24.80-3.09L24.80-0.71L27.85-0.71L27.85 0L23.97 0ZM31.26 0L31.26-6.56L32.09-6.56L32.09-3.81L35.14-3.81L35.14-6.56L35.98-6.56L35.98 0L35.14 0L35.14-3.09L32.09-3.09L32.09 0L31.26 0ZM37.78 0L37.78-6.56L41.56-6.56L41.56-5.86L38.61-5.86L38.61-3.80L41.10-3.80L41.10-3.09L38.61-3.09L38.61-0.71L41.66-0.71L41.66 0L37.78 0ZM43.87-2.67L45.84-2.67L45.53-3.67Q45.35-4.22 45.19-4.76Q45.03-5.31 44.87-5.88L44.87-5.88L44.83-5.88Q44.68-5.31 44.52-4.76Q44.36-4.22 44.18-3.67L44.18-3.67L43.87-2.67ZM46.67 0L46.05-2L43.66-2L43.03 0L42.18 0L44.40-6.56L45.34-6.56L47.56 0L46.67 0ZM49.32-5.89L49.32-3.45L50.42-3.45Q51.19-3.45 51.60-3.77Q52.01-4.08 52.01-4.72L52.01-4.72Q52.01-5.37 51.60-5.63Q51.19-5.89 50.42-5.89L50.42-5.89L49.32-5.89ZM53.03 0L52.09 0L50.51-2.77L49.32-2.77L49.32 0L48.49 0L48.49-6.56L50.54-6.56Q51.04-6.56 51.47-6.46Q51.89-6.37 52.20-6.15Q52.50-5.93 52.67-5.58Q52.84-5.23 52.84-4.72L52.84-4.72Q52.84-3.95 52.44-3.49Q52.04-3.03 51.37-2.86L51.37-2.86L53.03 0ZM55.46 0L55.46-5.86L53.48-5.86L53.48-6.56L58.28-6.56L58.28-5.86L56.30-5.86L56.30 0L55.46 0ZM58.59-0.85L59.09-1.43Q59.44-1.06 59.91-0.83Q60.39-0.61 60.90-0.61L60.90-0.61Q61.55-0.61 61.91-0.91Q62.27-1.20 62.27-1.68L62.27-1.68Q62.27-1.93 62.19-2.10Q62.10-2.28 61.95-2.41Q61.81-2.53 61.61-2.63Q61.41-2.73 61.18-2.84L61.18-2.84L60.24-3.25Q60.01-3.35 59.77-3.49Q59.53-3.63 59.34-3.83Q59.15-4.03 59.03-4.30Q58.91-4.58 58.91-4.94L58.91-4.94Q58.91-5.31 59.07-5.63Q59.22-5.95 59.50-6.19Q59.77-6.42 60.15-6.55Q60.52-6.68 60.97-6.68L60.97-6.68Q61.56-6.68 62.06-6.46Q62.56-6.23 62.91-5.87L62.91-5.87L62.46-5.33Q62.16-5.62 61.80-5.79Q61.43-5.95 60.97-5.95L60.97-5.95Q60.42-5.95 60.09-5.70Q59.75-5.44 59.75-4.99L59.75-4.99Q59.75-4.75 59.84-4.58Q59.94-4.42 60.10-4.29Q60.26-4.17 60.45-4.08Q60.64-3.98 60.84-3.90L60.84-3.90L61.77-3.50Q62.05-3.38 62.30-3.23Q62.55-3.07 62.73-2.87Q62.91-2.66 63.02-2.39Q63.12-2.11 63.12-1.75L63.12-1.75Q63.12-1.36 62.97-1.02Q62.81-0.68 62.52-0.42Q62.23-0.17 61.82-0.03Q61.41 0.12 60.89 0.12L60.89 0.12Q60.20 0.12 59.61-0.14Q59.02-0.40 58.59-0.85L58.59-0.85Z" transform="translate(-0.9, 6.68)"></path></g></g></g></g></g></g><defs><filter id="b8a61ada-dd44-4006-8eeb-32dcda68e37c">
          <feColorMatrix type="matrix" values="0 0 0 0 0  0 0 0 0 0  0 0 0 0 0  0 0 0 1 0"></feColorMatrix>
          </filter><filter id="6e1ce224-e132-4430-a2ac-81eda77e6055">
          <feColorMatrix type="matrix" values="0 0 0 0 0.99609375  0 0 0 0 0.99609375  0 0 0 0 0.99609375  0 0 0 1 0"></feColorMatrix>
          </filter></defs><mask id="21c31dc1-8e77-4140-b8a0-647545cf374d"><g data-v-70b83f88="" fill="#ff9a9e" class="j-b-g-c iconbgsvg"><g data-d="container" transform="translate(0,0)"><g><rect fill="#ff9a9e" fill-opacity="0" stroke-width="2" x="0" y="0" width="170" height="168.910525" class="image-rect" stroke="#000"></rect> <svg filter="url(#6e1ce224-e132-4430-a2ac-81eda77e6055)" x="0" y="0" width="170" height="168.910525" filtersec="colorsf6766754092" class="image-svg-container primary" style="overflow: visible;"><svg fill="#000000" xmlns="http://www.w3.org/2000/svg" xmlns:xlink="http://www.w3.org/1999/xlink" version="1.1" x="0px" y="0px" viewBox="-0.20632 -0.00061 64.41348 64.00061" enable-background="new 0 0 64 64" xml:space="preserve" style="overflow: visible;"><g transform="scale(1, 1) skewX(0)"><path d="M59.178,28.276c-0.132-1.09-0.04-2.357,0.059-3.699c0.063-0.863,0.209-2.867,0.052-3.352  c-0.201-0.459-1.639-1.861-2.252-2.459c-0.966-0.942-1.878-1.832-2.507-2.742c-0.624-0.905-1.131-2.072-1.669-3.308  c-0.344-0.789-1.146-2.631-1.51-2.986c-0.392-0.313-2.315-0.887-3.138-1.132c-1.293-0.386-2.515-0.75-3.491-1.263  c-0.973-0.51-1.965-1.308-3.014-2.15c-0.677-0.542-2.242-1.8-2.727-1.945c0.012,0.004-0.057-0.005-0.192-0.004  c-0.763,0-2.007,0.243-3.105,0.458c-1.33,0.262-2.582,0.507-3.685,0.507c-1.1,0-2.351-0.245-3.674-0.505  c-1.102-0.216-2.349-0.46-3.114-0.46c-0.125,0-0.194,0.007-0.217,0.009c-0.464,0.143-1.972,1.354-2.695,1.936  c-1.053,0.846-2.047,1.644-3.022,2.156c-0.975,0.512-2.197,0.876-3.49,1.262c-0.822,0.245-2.747,0.819-3.145,1.138  c-0.357,0.35-1.159,2.191-1.501,2.978c-0.54,1.238-1.047,2.405-1.673,3.313c-0.627,0.907-1.539,1.797-2.505,2.739  c-0.614,0.598-2.051,2-2.255,2.466c-0.154,0.477-0.007,2.479,0.055,3.333c0.098,1.348,0.19,2.619,0.058,3.713  s-0.527,2.307-0.945,3.592c-0.266,0.817-0.887,2.727-0.851,3.232c0.085,0.491,1.146,2.197,1.598,2.926  c0.712,1.146,1.385,2.229,1.776,3.259c0.389,1.026,0.604,2.28,0.83,3.605c0.146,0.857,0.485,2.838,0.753,3.271  c0.305,0.396,2.037,1.415,2.777,1.851c1.163,0.684,2.261,1.329,3.085,2.059c0.822,0.728,1.595,1.739,2.414,2.811  c0.524,0.688,1.744,2.283,2.181,2.542c0.454,0.209,2.458,0.306,3.314,0.348c1.35,0.064,2.625,0.125,3.693,0.39  c1.069,0.263,2.226,0.8,3.45,1.369c0.834,0.388,2.546,1.184,3.102,1.232c0.557-0.049,2.272-0.846,3.101-1.23  c1.226-0.569,2.384-1.108,3.45-1.371c1.071-0.265,2.346-0.325,3.696-0.39c0.854-0.042,2.859-0.139,3.321-0.353  c0.429-0.253,1.602-1.787,2.165-2.525c0.824-1.079,1.598-2.093,2.424-2.824c0.823-0.728,1.921-1.373,3.084-2.057  c0.739-0.436,2.471-1.454,2.781-1.859c0.264-0.425,0.602-2.405,0.746-3.251c0.228-1.336,0.442-2.59,0.832-3.616  c0.392-1.029,1.063-2.112,1.775-3.259c0.453-0.729,1.514-2.435,1.6-2.935c0.035-0.498-0.563-2.337-0.851-3.222  C59.705,30.585,59.311,29.372,59.178,28.276z"></path><path d="M62.39,27.888c-0.233-1.938,0.617-5.98-0.075-7.806c-0.691-1.825-4.011-4.288-5.12-5.894  c-1.108-1.608-2.233-5.583-3.695-6.877c-1.46-1.294-5.544-1.933-7.272-2.84s-4.572-3.904-6.468-4.372  C37.864-0.368,33.952,0.964,32,0.964c-1.952,0-5.863-1.333-7.759-0.865c-1.895,0.467-4.739,3.464-6.467,4.372  c-1.729,0.907-5.813,1.546-7.273,2.84c-1.462,1.294-2.587,5.27-3.695,6.877c-1.109,1.606-4.429,4.068-5.121,5.894  c-0.692,1.826,0.161,5.869-0.075,7.806c-0.235,1.938-2.031,5.661-1.795,7.6c0.235,1.938,2.869,5.122,3.561,6.947  c0.692,1.824,0.833,5.954,1.943,7.561c1.108,1.606,4.92,3.204,6.382,4.498c1.46,1.293,3.506,4.886,5.233,5.793  s5.846,0.549,7.741,1.017C26.569,61.77,30.049,64,32,64c1.952,0,5.431-2.23,7.327-2.697c1.895-0.468,6.013-0.109,7.74-1.017  c1.729-0.907,3.773-4.5,5.233-5.793c1.462-1.294,5.274-2.892,6.382-4.498c1.109-1.606,1.251-5.736,1.943-7.561  c0.691-1.825,3.325-5.01,3.561-6.947C64.421,33.549,62.625,29.826,62.39,27.888z M59.847,38.32  c-0.697,1.123-1.356,2.184-1.729,3.163c-0.37,0.977-0.579,2.203-0.802,3.503c-0.244,1.428-0.529,2.984-0.839,3.482  c-0.361,0.475-1.715,1.292-2.957,2.022c-1.139,0.669-2.214,1.301-2.997,1.994c-0.785,0.695-1.543,1.688-2.345,2.738  c-0.877,1.147-1.85,2.39-2.354,2.687c-0.541,0.251-2.116,0.345-3.553,0.414c-1.321,0.063-2.569,0.124-3.589,0.376  c-1.015,0.25-2.148,0.777-3.349,1.334c-1.294,0.603-2.725,1.247-3.318,1.284H32l-0.018-0.001c-0.591-0.036-2.019-0.681-3.31-1.28  c-1.208-0.561-2.34-1.087-3.357-1.337c-1.017-0.252-2.265-0.313-3.587-0.376c-1.437-0.069-3.013-0.163-3.545-0.41  c-0.514-0.302-1.487-1.546-2.359-2.689c-0.806-1.056-1.563-2.046-2.346-2.739s-1.859-1.325-2.997-1.994  c-1.242-0.73-2.596-1.549-2.953-2.016c-0.315-0.507-0.6-2.062-0.842-3.479c-0.224-1.31-0.433-2.536-0.803-3.513  c-0.372-0.979-1.032-2.04-1.729-3.163c-0.76-1.223-1.579-2.575-1.678-3.153c-0.043-0.593,0.428-2.1,0.873-3.466  c0.41-1.261,0.796-2.45,0.923-3.49c0.126-1.04,0.036-2.287-0.061-3.605c-0.105-1.434-0.202-3.012-0.02-3.571  c0.238-0.546,1.355-1.663,2.386-2.667c0.946-0.923,1.839-1.794,2.435-2.657c0.595-0.863,1.092-2.006,1.62-3.217  c0.575-1.322,1.224-2.765,1.644-3.174c0.465-0.374,1.974-0.842,3.353-1.254c1.267-0.377,2.463-0.733,3.392-1.221  c0.927-0.487,1.9-1.269,2.931-2.097c1.121-0.9,2.363-1.875,2.926-2.044l0.047-0.014l0.049,0.003  c0.003-0.004,0.089-0.012,0.238-0.012c0.819,0,2.094,0.25,3.218,0.469c1.299,0.255,2.523,0.495,3.57,0.495  c1.048,0,2.274-0.241,3.571-0.495c1.13-0.221,2.402-0.469,3.219-0.469c0.221,0,0.315,0.018,0.332,0.021  c0.563,0.167,1.805,1.143,2.927,2.044c1.036,0.832,2.007,1.612,2.933,2.098c0.929,0.488,2.125,0.844,3.392,1.222  c1.379,0.412,2.889,0.881,3.347,1.249c0.427,0.415,1.074,1.857,1.648,3.177c0.528,1.212,1.026,2.356,1.619,3.217  c0.598,0.865,1.49,1.736,2.437,2.659c1.03,1.004,2.149,2.122,2.384,2.661c0.185,0.567,0.088,2.146-0.018,3.581  c-0.096,1.321-0.187,2.563-0.061,3.599c0.127,1.042,0.513,2.231,0.922,3.489c0.446,1.369,0.917,2.877,0.874,3.462  C61.424,35.747,60.606,37.098,59.847,38.32z"></path></g></svg></svg> <defs><filter id="colors3804821531"><feColorMatrix type="matrix" values="0 0 0 0 0.19921875  0 0 0 0 0.19921875  0 0 0 0 0.19921875  0 0 0 1 0" class="icon-fecolormatrix"></feColorMatrix></filter> <filter id="colorsf6766754092"><feColorMatrix type="matrix" values="0 0 0 0 0.99609375  0 0 0 0 0.99609375  0 0 0 0 0.99609375  0 0 0 1 0" class="icon-fecolormatrix"></feColorMatrix></filter> <filter id="colorsb2188926880"><feColorMatrix type="matrix" values="0 0 0 0 0  0 0 0 0 0  0 0 0 0 0  0 0 0 1 0" class="icon-fecolormatrix"></feColorMatrix></filter></defs></g></g> <g data-d="icon-text" hollow-target="textRect" transform="translate(32.665000915527344,41.41667556762695)" filter="url(#b8a61ada-dd44-4006-8eeb-32dcda68e37c)"><g data-d="icon" class="iconsvg-imagesvg" transform="matrix(1,0,0,1,34.834999084472656,0)" opacity="1"><g><!----> <svg filter="url(#colors2349813771)" x="0" y="0" width="35" height="38.27730265316389" filtersec="colorsf6151990412" class="image-svg-svg primary" style="overflow: visible;"><svg version="1.1" id="Capa_1" xmlns="http://www.w3.org/2000/svg" xmlns:xlink="http://www.w3.org/1999/xlink" x="0px" y="0px" viewBox="1.1957494020462036 0 25.523374557495117 27.913249969482422" style="overflow: visible;" xml:space="preserve"><g> <g> <path d="M17.814,18.104c-0.686-2.479-0.686-3.427,0-5.905c2.34-0.884,6.833-2.667,7.856-3.692 c1.399-1.399,1.399-3.669-0.001-5.068c-1.398-1.399-3.668-1.399-5.067,0c-1.025,1.024-2.808,5.516-3.692,7.856 c-2.478,0.686-3.426,0.686-5.906,0c-0.885-2.341-2.667-6.831-3.69-7.855c-1.4-1.399-3.669-1.399-5.069,0 c-1.399,1.399-1.399,3.669,0,5.068c1.024,1.025,5.516,2.808,7.857,3.692c0.685,2.478,0.685,3.427-0.001,5.904 c-2.341,0.886-6.832,2.668-7.855,3.691c-1.399,1.4-1.399,3.668,0,5.069c1.399,1.399,3.669,1.399,5.069,0 c1.023-1.024,2.807-5.517,3.69-7.857c2.479-0.685,3.427-0.684,5.906,0.001c0.884,2.342,2.667,6.832,3.69,7.856 c1.399,1.399,3.669,1.399,5.068,0c1.4-1.4,1.4-3.668,0-5.068C24.646,20.77,20.155,18.988,17.814,18.104z"></path> <ellipse cx="13.958" cy="3.583" rx="2.986" ry="3.583"></ellipse> </g></g></svg></svg> <defs><filter id="colors2349813771"><feColorMatrix type="matrix" values="0 0 0 0 0.19921875  0 0 0 0 0.19921875  0 0 0 0 0.19921875  0 0 0 1 0" class="icon-fecolormatrix"></feColorMatrix></filter> <filter id="colorsf6151990412"><feColorMatrix type="matrix" values="0 0 0 0 0.99609375  0 0 0 0 0.99609375  0 0 0 0 0.99609375  0 0 0 1 0" class="icon-fecolormatrix"></feColorMatrix></filter> <filter id="colorsb4056083888"><feColorMatrix type="matrix" values="0 0 0 0 0  0 0 0 0 0  0 0 0 0 0  0 0 0 1 0" class="icon-fecolormatrix"></feColorMatrix></filter></defs></g></g> <g data-d="text" transform="translate(0,42.277217864990234)"><g data-gra="path-name" fill-rule="" class="tp-name iconsvg-namesvg" transform="matrix(1,0,0,1,0,0)" opacity="1"><g transform="scale(1)"><g><path d="M4.89 2.26Q3.59 2.19 3.12 1.65 2.66 1.12 2.66 0.16L2.66 0.16Q2.66-1.2 3.33-3.38 4.01-5.57 5.08-8.1L5.08-8.1Q2.55-7.86 1.9-7.76L1.9-7.76Q2.08-9.81 5.73-9.92L5.73-9.92Q7.31-14.29 8.56-16.84L8.56-16.84Q8.15-16.89 7.63-16.89L7.63-16.89Q5.36-16.89 4.5-16.2 3.64-15.51 3.64-14.06L3.64-14.06Q3.64-13.43 3.76-12.91 3.88-12.39 4.17-11.71L4.17-11.71Q1.9-12.08 1.9-13.98L1.9-13.98Q1.9-15.31 2.89-16.36 3.88-17.42 5.61-18.01 7.34-18.61 9.45-18.61L9.45-18.61Q10.23-18.61 11.14-18.53 12.05-18.46 12.31-18.43L12.31-18.43Q13.85-18.25 14.79-18.25L14.79-18.25Q15.98-18.25 17.42-18.64L17.42-18.64Q16.22-17.31 15.42-16.82 14.63-16.32 13.82-16.32L13.82-16.32Q13.33-16.32 12.18-16.5L12.18-16.5Q10.59-16.71 10.07-16.74L10.07-16.74Q9.61-15.62 8.97-13.73 8.33-11.84 7.73-9.89L7.73-9.89Q8.36-9.84 8.85-9.79 9.35-9.74 9.74-9.71L9.74-9.71Q11.56-9.5 12.6-9.48L12.6-9.48Q12.18-8.9 11.71-8.67 11.25-8.43 10.33-8.36 9.42-8.28 7.24-8.23L7.24-8.23Q6.79-6.64 6.17-4.56L6.17-4.56Q5.47-2.13 5.18-0.55 4.89 1.04 4.89 2.26L4.89 2.26ZM13.51 0.83Q12.44 0.83 11.96 0.13 11.48-0.57 11.48-1.61L11.48-1.61Q11.48-2.71 11.94-3.88 12.39-5.05 13.12-5.83 13.85-6.61 14.6-6.61L14.6-6.61Q14.92-6.61 15.41-6.4L15.41-6.4Q15.57-7.6 16.26-8.38 16.95-9.16 18.2-9.16L18.2-9.16Q19.24-9.16 19.73-8.58 20.23-7.99 20.23-7.05L20.23-7.05Q20.23-6.14 19.74-4.97 19.26-3.8 18.51-2.63L18.51-2.63Q18.82-2.47 19.24-2.47L19.24-2.47Q19.97-2.47 20.8-2.95 21.63-3.44 22.07-4.43L22.07-4.43 22.54-4.09Q22-2.84 21.07-2.19 20.15-1.54 19.16-1.54L19.16-1.54Q18.56-1.54 17.86-1.77L17.86-1.77Q16.89-0.62 15.75 0.1 14.6 0.83 13.51 0.83L13.51 0.83ZM17.62-3.18Q18.27-4.14 18.7-5.18 19.13-6.22 19.13-7.05L19.13-7.05Q19.13-8.2 18.4-8.2L18.4-8.2Q18.07-8.2 17.7-7.86 17.34-7.52 17.1-6.96 16.87-6.4 16.87-5.73L16.87-5.73Q16.87-5.13 17.08-4.36 17.28-3.59 17.62-3.18L17.62-3.18ZM14.45-0.49Q14.92-0.49 15.59-1.02 16.27-1.54 16.95-2.34L16.95-2.34Q15.46-3.64 15.38-6.17L15.38-6.17Q15.07-6.01 14.63-5.21 14.19-4.4 13.87-3.41 13.56-2.42 13.56-1.69L13.56-1.69Q13.56-0.49 14.45-0.49L14.45-0.49ZM23.45 0.78Q22.6 0.78 22.02-0.03 21.45-0.83 21.45-1.93L21.45-1.93Q21.45-2.86 21.87-4.27 22.28-5.67 22.84-6.72 23.4-7.76 23.82-7.76L23.82-7.76Q24-7.76 24.38-7.56 24.76-7.37 25.04-7.08L25.04-7.08Q24.5-6.27 23.91-4.76 23.32-3.25 23.32-2.16L23.32-2.16Q23.32-1.67 23.47-1.13 23.61-0.6 24.11-0.6L24.11-0.6Q25.07-0.6 26.41-2.75 27.75-4.89 28.71-7.11L28.71-7.11Q30.27-6.85 30.27-6.22L30.27-6.22Q30.27-6.17 29.96-5.47L29.96-5.47Q29.42-4.19 29.03-3.1 28.63-2 28.63-1.2L28.63-1.2Q28.63-0.29 29.34-0.29L29.34-0.29Q29.88-0.29 30.65-0.79 31.42-1.3 32.23-2.25 33.03-3.2 33.63-4.45L33.63-4.45 34.02-4.14Q33.45-2.73 32.54-1.61 31.63-0.49 30.57 0.14 29.52 0.78 28.56 0.78L28.56 0.78Q27.41 0.78 27.09-0.01 26.76-0.81 26.76-2.13L26.76-2.13Q25.88-0.78 25.09 0 24.31 0.78 23.45 0.78L23.45 0.78ZM41.73 0.52Q40.74 0.52 40.19 0.03 39.65-0.47 39.65-1.28L39.65-1.28Q39.65-1.61 39.76-2.06 39.88-2.5 40.01-2.94L40.01-2.94Q40.38-4.14 40.38-4.71L40.38-4.71Q40.38-5.23 40.11-5.48 39.85-5.73 39.46-5.73L39.46-5.73Q38.08-5.73 36.68-4 35.27-2.26 33.66 0.39L33.66 0.39Q32.54 0.39 31.97-0.36L31.97-0.36 32.2-1.02Q33.74-4.74 33.74-6.53L33.74-6.53Q33.95-6.77 34.34-6.96 34.73-7.16 35.09-7.16L35.09-7.16Q35.53-7.16 35.77-6.95 36-6.74 36-6.38L36-6.38Q36-5.67 35.56-4.06L35.56-4.06Q36.73-5.62 37.99-6.61 39.26-7.6 40.48-7.6L40.48-7.6Q41.52-7.6 42.09-6.89 42.67-6.17 42.67-5.18L42.67-5.18Q42.67-4.61 42.52-4.09 42.38-3.57 42.09-2.92L42.09-2.92Q41.65-1.82 41.65-1.28L41.65-1.28Q41.65-0.89 41.83-0.7 42.02-0.52 42.28-0.52L42.28-0.52Q43.13-0.52 44.14-1.71 45.14-2.89 45.95-4.5L45.95-4.5 46.39-4.14Q45.45-1.98 44.32-0.73 43.19 0.52 41.73 0.52L41.73 0.52ZM47.07 0.78Q46.21 0.78 45.53 0.18 44.85-0.42 44.85-1.56L44.85-1.56Q44.85-3.02 45.97-4.93 47.09-6.85 48.81-8.2 50.53-9.55 52.25-9.55L52.25-9.55Q53.52-9.55 53.52-8.72L53.52-8.72Q53.52-8.3 53.21-8.12L53.21-8.12Q53-8.41 52.3-8.41L52.3-8.41Q50.97-8.41 49.77-7.25 48.58-6.09 47.83-4.53 47.09-2.97 47.09-1.93L47.09-1.93Q47.09-1.41 47.3-1.12 47.51-0.83 47.92-0.83L47.92-0.83Q48.65-0.83 49.63-1.68 50.61-2.53 51.63-4.09 52.66-5.65 53.47-7.73L53.47-7.73Q55.5-12.94 56.91-15.84 58.31-18.74 59.35-18.74L59.35-18.74Q59.64-18.74 59.86-18.52 60.08-18.3 60.08-17.96L60.08-17.96Q60.08-17.52 59.68-16.61 59.27-15.7 58.31-13.74L58.31-13.74Q56.41-9.89 55.29-7.02 54.17-4.14 54.17-1.8L54.17-1.8Q54.17-1.17 54.29-0.95 54.41-0.73 54.69-0.73L54.69-0.73Q55.58-0.73 56.72-1.77 57.87-2.81 58.73-4.58L58.73-4.58 59.22-4.17Q58.36-2.03 56.85-0.68 55.34 0.68 53.86 0.68L53.86 0.68Q52.84 0.68 52.4 0.05 51.96-0.57 51.96-1.59L51.96-1.59Q51.96-2.19 52.17-3.28L52.17-3.28Q50.89-1.43 49.54-0.33 48.18 0.78 47.07 0.78L47.07 0.78ZM59.51 1.22Q58.6 1.22 57.99 0.62 57.37 0.03 57.37-1.07L57.37-1.07Q57.37-2.58 58.48-4.45 59.59-6.33 61.3-7.63 63.02-8.93 64.74-8.93L64.74-8.93Q65.89-8.93 66.65-8.34 67.42-7.76 67.42-6.85L67.42-6.85Q67.42-5.65 65.94-5.6L65.94-5.6Q66.88-5.31 66.88-4.82L66.88-4.82Q66.88-4.63 66.69-4.27 66.51-3.9 66.28-3.51L66.28-3.51Q65.86-2.84 65.63-2.33 65.39-1.82 65.39-1.38L65.39-1.38Q65.39-0.99 65.59-0.72 65.78-0.44 66.17-0.44L66.17-0.44Q66.9-0.44 68.03-1.46 69.17-2.47 70.23-4.5L70.23-4.5 70.73-4.01Q69.76-1.85 68.33-0.53 66.9 0.78 65.44 0.78L65.44 0.78Q64.4 0.78 63.84 0.09 63.28-0.6 63.28-1.48L63.28-1.48Q62.11-0.08 61.28 0.57 60.45 1.22 59.51 1.22L59.51 1.22ZM60.05-0.1Q60.97-0.1 62.18-1.42 63.39-2.73 64.92-4.84L64.92-4.84 65.44-5.54Q65.52-5.67 65.65-5.67L65.65-5.67 65.76-5.65Q65.89-6.07 65.89-6.61L65.89-6.61Q65.89-7.97 64.79-7.97L64.79-7.97Q63.65-7.97 62.4-6.74 61.15-5.52 60.3-3.83 59.46-2.13 59.46-0.94L59.46-0.94Q59.46-0.49 59.6-0.3 59.74-0.1 60.05-0.1L60.05-0.1ZM71.98 1.2Q70.78 1.2 70.1 0.51 69.43-0.18 69.43-1.54L69.43-1.54Q69.43-2.55 69.82-4.13 70.21-5.7 70.86-7.47L70.86-7.47Q70.18-7.6 69.95-7.71L69.95-7.71 69.95-8.51Q70.57-8.43 71.2-8.38L71.2-8.38Q72.37-11.32 73.71-13.43 75.05-15.54 75.88-15.54L75.88-15.54Q76.17-15.54 76.39-15.33 76.61-15.12 76.61-14.79L76.61-14.79Q76.61-14.37 76.25-13.67 75.88-12.96 75.05-11.53L75.05-11.53Q73.9-9.61 73.25-8.3L73.25-8.3Q76.25-8.3 78.02-8.49L78.02-8.49 78.02-7.63Q74.95-7.31 72.78-7.31L72.78-7.31Q71.43-4.11 71.43-2.08L71.43-2.08Q71.43-1.02 71.77-0.57 72.11-0.13 72.84-0.13L72.84-0.13Q74.14-0.13 75.5-1.31 76.87-2.5 77.89-4.53L77.89-4.53 78.25-4.27Q77.18-1.85 75.49-0.33 73.8 1.2 71.98 1.2L71.98 1.2ZM82.26-10.96Q81.71-10.96 81.34-11.22 80.96-11.48 80.96-11.97L80.96-11.97Q80.96-12.57 81.62-13.03 82.29-13.48 83.04-13.48L83.04-13.48Q84.16-13.48 84.16-12.52L84.16-12.52Q84.16-11.97 83.56-11.47 82.96-10.96 82.26-10.96L82.26-10.96ZM79.19 0.78Q78.09 0.78 77.5 0.13 76.9-0.52 76.9-1.54L76.9-1.54Q76.9-2.58 77.48-4.36 78.07-6.14 78.97-7.5 79.87-8.85 80.78-8.85L80.78-8.85Q81.11-8.85 81.34-8.66 81.56-8.46 81.56-8.1L81.56-8.1Q81.56-7.86 81.35-7.46 81.14-7.05 80.67-6.3L80.67-6.3Q79.84-4.92 79.36-3.87 78.88-2.81 78.88-1.87L78.88-1.87Q78.88-1.07 79.16-0.78 79.45-0.49 80.05-0.49L80.05-0.49Q82.1-0.49 84.13-4.48L84.13-4.48 84.52-4.06Q83.61-1.77 82.21-0.49 80.8 0.78 79.19 0.78L79.19 0.78ZM85.18 0.83Q84.11 0.83 83.63 0.13 83.15-0.57 83.15-1.61L83.15-1.61Q83.15-2.71 83.6-3.88 84.06-5.05 84.78-5.83 85.51-6.61 86.27-6.61L86.27-6.61Q86.58-6.61 87.08-6.4L87.08-6.4Q87.23-7.6 87.92-8.38 88.61-9.16 89.86-9.16L89.86-9.16Q90.9-9.16 91.4-8.58 91.89-7.99 91.89-7.05L91.89-7.05Q91.89-6.14 91.41-4.97 90.93-3.8 90.17-2.63L90.17-2.63Q90.49-2.47 90.9-2.47L90.9-2.47Q91.63-2.47 92.46-2.95 93.3-3.44 93.74-4.43L93.74-4.43 94.21-4.09Q93.66-2.84 92.74-2.19 91.81-1.54 90.82-1.54L90.82-1.54Q90.23-1.54 89.52-1.77L89.52-1.77Q88.56-0.62 87.41 0.1 86.27 0.83 85.18 0.83L85.18 0.83ZM89.29-3.18Q89.94-4.14 90.37-5.18 90.8-6.22 90.8-7.05L90.8-7.05Q90.8-8.2 90.07-8.2L90.07-8.2Q89.73-8.2 89.37-7.86 89-7.52 88.77-6.96 88.53-6.4 88.53-5.73L88.53-5.73Q88.53-5.13 88.74-4.36 88.95-3.59 89.29-3.18L89.29-3.18ZM86.11-0.49Q86.58-0.49 87.26-1.02 87.93-1.54 88.61-2.34L88.61-2.34Q87.13-3.64 87.05-6.17L87.05-6.17Q86.74-6.01 86.29-5.21 85.85-4.4 85.54-3.41 85.23-2.42 85.23-1.69L85.23-1.69Q85.23-0.49 86.11-0.49L86.11-0.49ZM101.91 0.52Q100.92 0.52 100.38 0.03 99.83-0.47 99.83-1.28L99.83-1.28Q99.83-1.61 99.95-2.06 100.07-2.5 100.2-2.94L100.2-2.94Q100.56-4.14 100.56-4.71L100.56-4.71Q100.56-5.23 100.3-5.48 100.04-5.73 99.65-5.73L99.65-5.73Q98.27-5.73 96.86-4 95.46-2.26 93.84 0.39L93.84 0.39Q92.72 0.39 92.15-0.36L92.15-0.36 92.39-1.02Q93.92-4.74 93.92-6.53L93.92-6.53Q94.13-6.77 94.52-6.96 94.91-7.16 95.28-7.16L95.28-7.16Q95.72-7.16 95.95-6.95 96.19-6.74 96.19-6.38L96.19-6.38Q96.19-5.67 95.74-4.06L95.74-4.06Q96.92-5.62 98.18-6.61 99.44-7.6 100.66-7.6L100.66-7.6Q101.71-7.6 102.28-6.89 102.85-6.17 102.85-5.18L102.85-5.18Q102.85-4.61 102.71-4.09 102.56-3.57 102.28-2.92L102.28-2.92Q101.84-1.82 101.84-1.28L101.84-1.28Q101.84-0.89 102.02-0.7 102.2-0.52 102.46-0.52L102.46-0.52Q103.32-0.52 104.32-1.71 105.32-2.89 106.13-4.5L106.13-4.5 106.57-4.14Q105.64-1.98 104.5-0.73 103.37 0.52 101.91 0.52L101.91 0.52Z" transform="translate(-1.9000000953674316, 18.739999771118164)"></path></g> <!----> <!----> <!----> <!----> <!----> <!----> <!----></g></g> <g data-gra="path-slogan" fill-rule="" class="tp-slogan iconsvg-slogansvg" fill="#ff9a9e" transform="matrix(0.9860228517194934,0,0,0.9860228517194934,21.659829446347963,28.047522302154274)" opacity="1"><!----> <!----> <g transform="scale(1, 1)"><g transform="scale(1)"><path d="M0.90 0L0.90-6.56L1.73-6.56L1.73-0.71L4.60-0.71L4.60 0L0.90 0ZM5.76 0L5.76-6.56L6.59-6.56L6.59 0L5.76 0ZM9.75 0L9.75-5.86L7.77-5.86L7.77-6.56L12.57-6.56L12.57-5.86L10.59-5.86L10.59 0L9.75 0ZM15.11 0L15.11-5.86L13.13-5.86L13.13-6.56L17.93-6.56L17.93-5.86L15.95-5.86L15.95 0L15.11 0ZM19.11 0L19.11-6.56L19.94-6.56L19.94-0.71L22.81-0.71L22.81 0L19.11 0ZM23.97 0L23.97-6.56L27.75-6.56L27.75-5.86L24.80-5.86L24.80-3.80L27.29-3.80L27.29-3.09L24.80-3.09L24.80-0.71L27.85-0.71L27.85 0L23.97 0ZM31.26 0L31.26-6.56L32.09-6.56L32.09-3.81L35.14-3.81L35.14-6.56L35.98-6.56L35.98 0L35.14 0L35.14-3.09L32.09-3.09L32.09 0L31.26 0ZM37.78 0L37.78-6.56L41.56-6.56L41.56-5.86L38.61-5.86L38.61-3.80L41.10-3.80L41.10-3.09L38.61-3.09L38.61-0.71L41.66-0.71L41.66 0L37.78 0ZM43.87-2.67L45.84-2.67L45.53-3.67Q45.35-4.22 45.19-4.76Q45.03-5.31 44.87-5.88L44.87-5.88L44.83-5.88Q44.68-5.31 44.52-4.76Q44.36-4.22 44.18-3.67L44.18-3.67L43.87-2.67ZM46.67 0L46.05-2L43.66-2L43.03 0L42.18 0L44.40-6.56L45.34-6.56L47.56 0L46.67 0ZM49.32-5.89L49.32-3.45L50.42-3.45Q51.19-3.45 51.60-3.77Q52.01-4.08 52.01-4.72L52.01-4.72Q52.01-5.37 51.60-5.63Q51.19-5.89 50.42-5.89L50.42-5.89L49.32-5.89ZM53.03 0L52.09 0L50.51-2.77L49.32-2.77L49.32 0L48.49 0L48.49-6.56L50.54-6.56Q51.04-6.56 51.47-6.46Q51.89-6.37 52.20-6.15Q52.50-5.93 52.67-5.58Q52.84-5.23 52.84-4.72L52.84-4.72Q52.84-3.95 52.44-3.49Q52.04-3.03 51.37-2.86L51.37-2.86L53.03 0ZM55.46 0L55.46-5.86L53.48-5.86L53.48-6.56L58.28-6.56L58.28-5.86L56.30-5.86L56.30 0L55.46 0ZM58.59-0.85L59.09-1.43Q59.44-1.06 59.91-0.83Q60.39-0.61 60.90-0.61L60.90-0.61Q61.55-0.61 61.91-0.91Q62.27-1.20 62.27-1.68L62.27-1.68Q62.27-1.93 62.19-2.10Q62.10-2.28 61.95-2.41Q61.81-2.53 61.61-2.63Q61.41-2.73 61.18-2.84L61.18-2.84L60.24-3.25Q60.01-3.35 59.77-3.49Q59.53-3.63 59.34-3.83Q59.15-4.03 59.03-4.30Q58.91-4.58 58.91-4.94L58.91-4.94Q58.91-5.31 59.07-5.63Q59.22-5.95 59.50-6.19Q59.77-6.42 60.15-6.55Q60.52-6.68 60.97-6.68L60.97-6.68Q61.56-6.68 62.06-6.46Q62.56-6.23 62.91-5.87L62.91-5.87L62.46-5.33Q62.16-5.62 61.80-5.79Q61.43-5.95 60.97-5.95L60.97-5.95Q60.42-5.95 60.09-5.70Q59.75-5.44 59.75-4.99L59.75-4.99Q59.75-4.75 59.84-4.58Q59.94-4.42 60.10-4.29Q60.26-4.17 60.45-4.08Q60.64-3.98 60.84-3.90L60.84-3.90L61.77-3.50Q62.05-3.38 62.30-3.23Q62.55-3.07 62.73-2.87Q62.91-2.66 63.02-2.39Q63.12-2.11 63.12-1.75L63.12-1.75Q63.12-1.36 62.97-1.02Q62.81-0.68 62.52-0.42Q62.23-0.17 61.82-0.03Q61.41 0.12 60.89 0.12L60.89 0.12Q60.20 0.12 59.61-0.14Q59.02-0.40 58.59-0.85L58.59-0.85Z" transform="translate(-0.9, 6.68)"></path></g></g></g></g></g></g></mask><defs v-gra="od"><linearGradient x1="0" y1="1" x2="0" y2="0" id="7e8663c9-2584-4289-9350-654fef837080"><stop offset="0%" stop-color="#ff9a9e"></stop><stop offset="100%" stop-color="#fad0c4"></stop></linearGradient><filter id="42443b3f1de60f6b6fd3b6a9844b4764" filterUnits="userSpaceOnUse"><feColorMatrix type="matrix" values="0 0 0 0 0.99609375  0 0 0 0 0.99609375  0 0 0 0 0.99609375  0 0 0 1 0"></feColorMatrix></filter><linearGradient x1="0" y1="1" x2="0" y2="0" id="21785166-dc7b-4845-83a0-8bb53e5b4e09"><stop offset="0%" stop-color="#ff9a9e"></stop><stop offset="100%" stop-color="#fad0c4"></stop></linearGradient><filter id="42443b3f1de60f6b6fd3b6a9844b4764" filterUnits="userSpaceOnUse"><feColorMatrix type="matrix" values="0 0 0 0 0.99609375  0 0 0 0 0.99609375  0 0 0 0 0.99609375  0 0 0 1 0"></feColorMatrix></filter></defs><mask v-gra="im" id="790ae9d6-5bc5-45ab-8df8-ec4c2093e1d4"><g data-d="icon" class="iconsvg-imagesvg" filter="url(#aba6d72d-e050-46a3-b1d8-f3b8e76b31ea)"><g><!----> <svg filter="url(#colors2349813771)" x="0" y="0" width="35" height="38.27730265316389" filtersec="colorsf6151990412" class="image-svg-svg primary" style="overflow: visible;"><svg version="1.1" id="Capa_1" xmlns="http://www.w3.org/2000/svg" xmlns:xlink="http://www.w3.org/1999/xlink" x="0px" y="0px" viewBox="1.1957494020462036 0 25.523374557495117 27.913249969482422" style="enable-background:new 0 0 27.914 27.914;" xml:space="preserve"><g> <g> <path d="M17.814,18.104c-0.686-2.479-0.686-3.427,0-5.905c2.34-0.884,6.833-2.667,7.856-3.692 c1.399-1.399,1.399-3.669-0.001-5.068c-1.398-1.399-3.668-1.399-5.067,0c-1.025,1.024-2.808,5.516-3.692,7.856 c-2.478,0.686-3.426,0.686-5.906,0c-0.885-2.341-2.667-6.831-3.69-7.855c-1.4-1.399-3.669-1.399-5.069,0 c-1.399,1.399-1.399,3.669,0,5.068c1.024,1.025,5.516,2.808,7.857,3.692c0.685,2.478,0.685,3.427-0.001,5.904 c-2.341,0.886-6.832,2.668-7.855,3.691c-1.399,1.4-1.399,3.668,0,5.069c1.399,1.399,3.669,1.399,5.069,0 c1.023-1.024,2.807-5.517,3.69-7.857c2.479-0.685,3.427-0.684,5.906,0.001c0.884,2.342,2.667,6.832,3.69,7.856 c1.399,1.399,3.669,1.399,5.068,0c1.4-1.4,1.4-3.668,0-5.068C24.646,20.77,20.155,18.988,17.814,18.104z"></path> <ellipse cx="13.958" cy="3.583" rx="2.986" ry="3.583"></ellipse> </g></g></svg></svg> <defs><filter id="colors2349813771"><feColorMatrix type="matrix" values="0 0 0 0 0.19921875  0 0 0 0 0.19921875  0 0 0 0 0.19921875  0 0 0 1 0" class="icon-fecolormatrix"></feColorMatrix></filter> <filter id="colorsf6151990412"><feColorMatrix type="matrix" values="0 0 0 0 0.99609375  0 0 0 0 0.99609375  0 0 0 0 0.99609375  0 0 0 1 0" class="icon-fecolormatrix"></feColorMatrix></filter> <filter id="colorsb4056083888"><feColorMatrix type="matrix" values="0 0 0 0 0  0 0 0 0 0  0 0 0 0 0  0 0 0 1 0" class="icon-fecolormatrix"></feColorMatrix></filter></defs></g></g></mask><defs v-gra="id"><filter id="aba6d72d-e050-46a3-b1d8-f3b8e76b31ea" filterUnits="userSpaceOnUse"><feColorMatrix type="matrix" values="0 0 0 0 0.99609375  0 0 0 0 0.99609375  0 0 0 0 0.99609375  0 0 0 1 0"></feColorMatrix></filter><linearGradient x1="0" y1="1" x2="0" y2="0" id="c_xjBfHHuC154-vsiq7uZ"><stop offset="0%" stop-color="#ff9a9e"></stop><stop offset="100%" stop-color="#fad0c4"></stop></linearGradient><filter id="42443b3f1de60f6b6fd3b6a9844b4764" filterUnits="userSpaceOnUse"><feColorMatrix type="matrix" values="0 0 0 0 0.99609375  0 0 0 0 0.99609375  0 0 0 0 0.99609375  0 0 0 1 0"></feColorMatrix></filter></defs><mask v-gra="im" id="c3c9e24f-4ac4-4e5f-b1c3-3924070f702b"><g data-v-70b83f88="" fill="#ff9a9e" class="j-b-g-c iconbgsvg" mask="url(#21c31dc1-8e77-4140-b8a0-647545cf374d)" filter="url(#aba6d72d-e050-46a3-b1d8-f3b8e76b31ea)"><g data-d="container" transform="translate(0,0)"><g><rect fill="#ff9a9e" fill-opacity="0" stroke-width="2" x="0" y="0" width="170" height="168.910525" class="image-rect"></rect> <svg x="0" y="0" width="170" height="168.910525" filtersec="colorsf6766754092" class="image-svg-container primary" style="overflow: visible;"><svg fill="#000000" xmlns="http://www.w3.org/2000/svg" xmlns:xlink="http://www.w3.org/1999/xlink" version="1.1" x="0px" y="0px" viewBox="-0.20632 -0.00061 64.41348 64.00061" enable-background="new 0 0 64 64" xml:space="preserve" style="overflow: visible;"><g transform="scale(1, 1) skewX(0)"><path d="M59.178,28.276c-0.132-1.09-0.04-2.357,0.059-3.699c0.063-0.863,0.209-2.867,0.052-3.352  c-0.201-0.459-1.639-1.861-2.252-2.459c-0.966-0.942-1.878-1.832-2.507-2.742c-0.624-0.905-1.131-2.072-1.669-3.308  c-0.344-0.789-1.146-2.631-1.51-2.986c-0.392-0.313-2.315-0.887-3.138-1.132c-1.293-0.386-2.515-0.75-3.491-1.263  c-0.973-0.51-1.965-1.308-3.014-2.15c-0.677-0.542-2.242-1.8-2.727-1.945c0.012,0.004-0.057-0.005-0.192-0.004  c-0.763,0-2.007,0.243-3.105,0.458c-1.33,0.262-2.582,0.507-3.685,0.507c-1.1,0-2.351-0.245-3.674-0.505  c-1.102-0.216-2.349-0.46-3.114-0.46c-0.125,0-0.194,0.007-0.217,0.009c-0.464,0.143-1.972,1.354-2.695,1.936  c-1.053,0.846-2.047,1.644-3.022,2.156c-0.975,0.512-2.197,0.876-3.49,1.262c-0.822,0.245-2.747,0.819-3.145,1.138  c-0.357,0.35-1.159,2.191-1.501,2.978c-0.54,1.238-1.047,2.405-1.673,3.313c-0.627,0.907-1.539,1.797-2.505,2.739  c-0.614,0.598-2.051,2-2.255,2.466c-0.154,0.477-0.007,2.479,0.055,3.333c0.098,1.348,0.19,2.619,0.058,3.713  s-0.527,2.307-0.945,3.592c-0.266,0.817-0.887,2.727-0.851,3.232c0.085,0.491,1.146,2.197,1.598,2.926  c0.712,1.146,1.385,2.229,1.776,3.259c0.389,1.026,0.604,2.28,0.83,3.605c0.146,0.857,0.485,2.838,0.753,3.271  c0.305,0.396,2.037,1.415,2.777,1.851c1.163,0.684,2.261,1.329,3.085,2.059c0.822,0.728,1.595,1.739,2.414,2.811  c0.524,0.688,1.744,2.283,2.181,2.542c0.454,0.209,2.458,0.306,3.314,0.348c1.35,0.064,2.625,0.125,3.693,0.39  c1.069,0.263,2.226,0.8,3.45,1.369c0.834,0.388,2.546,1.184,3.102,1.232c0.557-0.049,2.272-0.846,3.101-1.23  c1.226-0.569,2.384-1.108,3.45-1.371c1.071-0.265,2.346-0.325,3.696-0.39c0.854-0.042,2.859-0.139,3.321-0.353  c0.429-0.253,1.602-1.787,2.165-2.525c0.824-1.079,1.598-2.093,2.424-2.824c0.823-0.728,1.921-1.373,3.084-2.057  c0.739-0.436,2.471-1.454,2.781-1.859c0.264-0.425,0.602-2.405,0.746-3.251c0.228-1.336,0.442-2.59,0.832-3.616  c0.392-1.029,1.063-2.112,1.775-3.259c0.453-0.729,1.514-2.435,1.6-2.935c0.035-0.498-0.563-2.337-0.851-3.222  C59.705,30.585,59.311,29.372,59.178,28.276z"></path><path d="M62.39,27.888c-0.233-1.938,0.617-5.98-0.075-7.806c-0.691-1.825-4.011-4.288-5.12-5.894  c-1.108-1.608-2.233-5.583-3.695-6.877c-1.46-1.294-5.544-1.933-7.272-2.84s-4.572-3.904-6.468-4.372  C37.864-0.368,33.952,0.964,32,0.964c-1.952,0-5.863-1.333-7.759-0.865c-1.895,0.467-4.739,3.464-6.467,4.372  c-1.729,0.907-5.813,1.546-7.273,2.84c-1.462,1.294-2.587,5.27-3.695,6.877c-1.109,1.606-4.429,4.068-5.121,5.894  c-0.692,1.826,0.161,5.869-0.075,7.806c-0.235,1.938-2.031,5.661-1.795,7.6c0.235,1.938,2.869,5.122,3.561,6.947  c0.692,1.824,0.833,5.954,1.943,7.561c1.108,1.606,4.92,3.204,6.382,4.498c1.46,1.293,3.506,4.886,5.233,5.793  s5.846,0.549,7.741,1.017C26.569,61.77,30.049,64,32,64c1.952,0,5.431-2.23,7.327-2.697c1.895-0.468,6.013-0.109,7.74-1.017  c1.729-0.907,3.773-4.5,5.233-5.793c1.462-1.294,5.274-2.892,6.382-4.498c1.109-1.606,1.251-5.736,1.943-7.561  c0.691-1.825,3.325-5.01,3.561-6.947C64.421,33.549,62.625,29.826,62.39,27.888z M59.847,38.32  c-0.697,1.123-1.356,2.184-1.729,3.163c-0.37,0.977-0.579,2.203-0.802,3.503c-0.244,1.428-0.529,2.984-0.839,3.482  c-0.361,0.475-1.715,1.292-2.957,2.022c-1.139,0.669-2.214,1.301-2.997,1.994c-0.785,0.695-1.543,1.688-2.345,2.738  c-0.877,1.147-1.85,2.39-2.354,2.687c-0.541,0.251-2.116,0.345-3.553,0.414c-1.321,0.063-2.569,0.124-3.589,0.376  c-1.015,0.25-2.148,0.777-3.349,1.334c-1.294,0.603-2.725,1.247-3.318,1.284H32l-0.018-0.001c-0.591-0.036-2.019-0.681-3.31-1.28  c-1.208-0.561-2.34-1.087-3.357-1.337c-1.017-0.252-2.265-0.313-3.587-0.376c-1.437-0.069-3.013-0.163-3.545-0.41  c-0.514-0.302-1.487-1.546-2.359-2.689c-0.806-1.056-1.563-2.046-2.346-2.739s-1.859-1.325-2.997-1.994  c-1.242-0.73-2.596-1.549-2.953-2.016c-0.315-0.507-0.6-2.062-0.842-3.479c-0.224-1.31-0.433-2.536-0.803-3.513  c-0.372-0.979-1.032-2.04-1.729-3.163c-0.76-1.223-1.579-2.575-1.678-3.153c-0.043-0.593,0.428-2.1,0.873-3.466  c0.41-1.261,0.796-2.45,0.923-3.49c0.126-1.04,0.036-2.287-0.061-3.605c-0.105-1.434-0.202-3.012-0.02-3.571  c0.238-0.546,1.355-1.663,2.386-2.667c0.946-0.923,1.839-1.794,2.435-2.657c0.595-0.863,1.092-2.006,1.62-3.217  c0.575-1.322,1.224-2.765,1.644-3.174c0.465-0.374,1.974-0.842,3.353-1.254c1.267-0.377,2.463-0.733,3.392-1.221  c0.927-0.487,1.9-1.269,2.931-2.097c1.121-0.9,2.363-1.875,2.926-2.044l0.047-0.014l0.049,0.003  c0.003-0.004,0.089-0.012,0.238-0.012c0.819,0,2.094,0.25,3.218,0.469c1.299,0.255,2.523,0.495,3.57,0.495  c1.048,0,2.274-0.241,3.571-0.495c1.13-0.221,2.402-0.469,3.219-0.469c0.221,0,0.315,0.018,0.332,0.021  c0.563,0.167,1.805,1.143,2.927,2.044c1.036,0.832,2.007,1.612,2.933,2.098c0.929,0.488,2.125,0.844,3.392,1.222  c1.379,0.412,2.889,0.881,3.347,1.249c0.427,0.415,1.074,1.857,1.648,3.177c0.528,1.212,1.026,2.356,1.619,3.217  c0.598,0.865,1.49,1.736,2.437,2.659c1.03,1.004,2.149,2.122,2.384,2.661c0.185,0.567,0.088,2.146-0.018,3.581  c-0.096,1.321-0.187,2.563-0.061,3.599c0.127,1.042,0.513,2.231,0.922,3.489c0.446,1.369,0.917,2.877,0.874,3.462  C61.424,35.747,60.606,37.098,59.847,38.32z"></path></g></svg></svg> <defs><filter id="colors3804821531"><feColorMatrix type="matrix" values="0 0 0 0 0.19921875  0 0 0 0 0.19921875  0 0 0 0 0.19921875  0 0 0 1 0" class="icon-fecolormatrix"></feColorMatrix></filter> <filter id="colorsf6766754092"><feColorMatrix type="matrix" values="0 0 0 0 0.99609375  0 0 0 0 0.99609375  0 0 0 0 0.99609375  0 0 0 1 0" class="icon-fecolormatrix"></feColorMatrix></filter> <filter id="colorsb2188926880"><feColorMatrix type="matrix" values="0 0 0 0 0  0 0 0 0 0  0 0 0 0 0  0 0 0 1 0" class="icon-fecolormatrix"></feColorMatrix></filter></defs></g></g> <g data-d="icon-text" hollow-target="textRect" transform="translate(32.665000915527344,41.41667556762695)"><g data-d="icon" class="iconsvg-imagesvg" transform="matrix(1,0,0,1,34.834999084472656,0)" opacity="1"><g><!----> <svg x="0" y="0" width="35" height="38.27730265316389" filtersec="colorsf6151990412" class="image-svg-svg primary" style="overflow: visible;"><svg version="1.1" id="Capa_1" xmlns="http://www.w3.org/2000/svg" xmlns:xlink="http://www.w3.org/1999/xlink" x="0px" y="0px" viewBox="1.1957494020462036 0 25.523374557495117 27.913249969482422" style="enable-background:new 0 0 27.914 27.914;" xml:space="preserve"><g> <g> <path d="M17.814,18.104c-0.686-2.479-0.686-3.427,0-5.905c2.34-0.884,6.833-2.667,7.856-3.692 c1.399-1.399,1.399-3.669-0.001-5.068c-1.398-1.399-3.668-1.399-5.067,0c-1.025,1.024-2.808,5.516-3.692,7.856 c-2.478,0.686-3.426,0.686-5.906,0c-0.885-2.341-2.667-6.831-3.69-7.855c-1.4-1.399-3.669-1.399-5.069,0 c-1.399,1.399-1.399,3.669,0,5.068c1.024,1.025,5.516,2.808,7.857,3.692c0.685,2.478,0.685,3.427-0.001,5.904 c-2.341,0.886-6.832,2.668-7.855,3.691c-1.399,1.4-1.399,3.668,0,5.069c1.399,1.399,3.669,1.399,5.069,0 c1.023-1.024,2.807-5.517,3.69-7.857c2.479-0.685,3.427-0.684,5.906,0.001c0.884,2.342,2.667,6.832,3.69,7.856 c1.399,1.399,3.669,1.399,5.068,0c1.4-1.4,1.4-3.668,0-5.068C24.646,20.77,20.155,18.988,17.814,18.104z"></path> <ellipse cx="13.958" cy="3.583" rx="2.986" ry="3.583"></ellipse> </g></g></svg></svg> <defs><filter id="colors2349813771"><feColorMatrix type="matrix" values="0 0 0 0 0.19921875  0 0 0 0 0.19921875  0 0 0 0 0.19921875  0 0 0 1 0" class="icon-fecolormatrix"></feColorMatrix></filter> <filter id="colorsf6151990412"><feColorMatrix type="matrix" values="0 0 0 0 0.99609375  0 0 0 0 0.99609375  0 0 0 0 0.99609375  0 0 0 1 0" class="icon-fecolormatrix"></feColorMatrix></filter> <filter id="colorsb4056083888"><feColorMatrix type="matrix" values="0 0 0 0 0  0 0 0 0 0  0 0 0 0 0  0 0 0 1 0" class="icon-fecolormatrix"></feColorMatrix></filter></defs></g></g> <g data-d="text" transform="translate(0,42.277217864990234)"><g data-gra="path-name" fill-rule="" class="tp-name iconsvg-namesvg" transform="matrix(1,0,0,1,0,0)" fill="url(#21785166-dc7b-4845-83a0-8bb53e5b4e09)" opacity="1"><g transform="scale(1)"><g><path d="M4.89 2.26Q3.59 2.19 3.12 1.65 2.66 1.12 2.66 0.16L2.66 0.16Q2.66-1.2 3.33-3.38 4.01-5.57 5.08-8.1L5.08-8.1Q2.55-7.86 1.9-7.76L1.9-7.76Q2.08-9.81 5.73-9.92L5.73-9.92Q7.31-14.29 8.56-16.84L8.56-16.84Q8.15-16.89 7.63-16.89L7.63-16.89Q5.36-16.89 4.5-16.2 3.64-15.51 3.64-14.06L3.64-14.06Q3.64-13.43 3.76-12.91 3.88-12.39 4.17-11.71L4.17-11.71Q1.9-12.08 1.9-13.98L1.9-13.98Q1.9-15.31 2.89-16.36 3.88-17.42 5.61-18.01 7.34-18.61 9.45-18.61L9.45-18.61Q10.23-18.61 11.14-18.53 12.05-18.46 12.31-18.43L12.31-18.43Q13.85-18.25 14.79-18.25L14.79-18.25Q15.98-18.25 17.42-18.64L17.42-18.64Q16.22-17.31 15.42-16.82 14.63-16.32 13.82-16.32L13.82-16.32Q13.33-16.32 12.18-16.5L12.18-16.5Q10.59-16.71 10.07-16.74L10.07-16.74Q9.61-15.62 8.97-13.73 8.33-11.84 7.73-9.89L7.73-9.89Q8.36-9.84 8.85-9.79 9.35-9.74 9.74-9.71L9.74-9.71Q11.56-9.5 12.6-9.48L12.6-9.48Q12.18-8.9 11.71-8.67 11.25-8.43 10.33-8.36 9.42-8.28 7.24-8.23L7.24-8.23Q6.79-6.64 6.17-4.56L6.17-4.56Q5.47-2.13 5.18-0.55 4.89 1.04 4.89 2.26L4.89 2.26ZM13.51 0.83Q12.44 0.83 11.96 0.13 11.48-0.57 11.48-1.61L11.48-1.61Q11.48-2.71 11.94-3.88 12.39-5.05 13.12-5.83 13.85-6.61 14.6-6.61L14.6-6.61Q14.92-6.61 15.41-6.4L15.41-6.4Q15.57-7.6 16.26-8.38 16.95-9.16 18.2-9.16L18.2-9.16Q19.24-9.16 19.73-8.58 20.23-7.99 20.23-7.05L20.23-7.05Q20.23-6.14 19.74-4.97 19.26-3.8 18.51-2.63L18.51-2.63Q18.82-2.47 19.24-2.47L19.24-2.47Q19.97-2.47 20.8-2.95 21.63-3.44 22.07-4.43L22.07-4.43 22.54-4.09Q22-2.84 21.07-2.19 20.15-1.54 19.16-1.54L19.16-1.54Q18.56-1.54 17.86-1.77L17.86-1.77Q16.89-0.62 15.75 0.1 14.6 0.83 13.51 0.83L13.51 0.83ZM17.62-3.18Q18.27-4.14 18.7-5.18 19.13-6.22 19.13-7.05L19.13-7.05Q19.13-8.2 18.4-8.2L18.4-8.2Q18.07-8.2 17.7-7.86 17.34-7.52 17.1-6.96 16.87-6.4 16.87-5.73L16.87-5.73Q16.87-5.13 17.08-4.36 17.28-3.59 17.62-3.18L17.62-3.18ZM14.45-0.49Q14.92-0.49 15.59-1.02 16.27-1.54 16.95-2.34L16.95-2.34Q15.46-3.64 15.38-6.17L15.38-6.17Q15.07-6.01 14.63-5.21 14.19-4.4 13.87-3.41 13.56-2.42 13.56-1.69L13.56-1.69Q13.56-0.49 14.45-0.49L14.45-0.49ZM23.45 0.78Q22.6 0.78 22.02-0.03 21.45-0.83 21.45-1.93L21.45-1.93Q21.45-2.86 21.87-4.27 22.28-5.67 22.84-6.72 23.4-7.76 23.82-7.76L23.82-7.76Q24-7.76 24.38-7.56 24.76-7.37 25.04-7.08L25.04-7.08Q24.5-6.27 23.91-4.76 23.32-3.25 23.32-2.16L23.32-2.16Q23.32-1.67 23.47-1.13 23.61-0.6 24.11-0.6L24.11-0.6Q25.07-0.6 26.41-2.75 27.75-4.89 28.71-7.11L28.71-7.11Q30.27-6.85 30.27-6.22L30.27-6.22Q30.27-6.17 29.96-5.47L29.96-5.47Q29.42-4.19 29.03-3.1 28.63-2 28.63-1.2L28.63-1.2Q28.63-0.29 29.34-0.29L29.34-0.29Q29.88-0.29 30.65-0.79 31.42-1.3 32.23-2.25 33.03-3.2 33.63-4.45L33.63-4.45 34.02-4.14Q33.45-2.73 32.54-1.61 31.63-0.49 30.57 0.14 29.52 0.78 28.56 0.78L28.56 0.78Q27.41 0.78 27.09-0.01 26.76-0.81 26.76-2.13L26.76-2.13Q25.88-0.78 25.09 0 24.31 0.78 23.45 0.78L23.45 0.78ZM41.73 0.52Q40.74 0.52 40.19 0.03 39.65-0.47 39.65-1.28L39.65-1.28Q39.65-1.61 39.76-2.06 39.88-2.5 40.01-2.94L40.01-2.94Q40.38-4.14 40.38-4.71L40.38-4.71Q40.38-5.23 40.11-5.48 39.85-5.73 39.46-5.73L39.46-5.73Q38.08-5.73 36.68-4 35.27-2.26 33.66 0.39L33.66 0.39Q32.54 0.39 31.97-0.36L31.97-0.36 32.2-1.02Q33.74-4.74 33.74-6.53L33.74-6.53Q33.95-6.77 34.34-6.96 34.73-7.16 35.09-7.16L35.09-7.16Q35.53-7.16 35.77-6.95 36-6.74 36-6.38L36-6.38Q36-5.67 35.56-4.06L35.56-4.06Q36.73-5.62 37.99-6.61 39.26-7.6 40.48-7.6L40.48-7.6Q41.52-7.6 42.09-6.89 42.67-6.17 42.67-5.18L42.67-5.18Q42.67-4.61 42.52-4.09 42.38-3.57 42.09-2.92L42.09-2.92Q41.65-1.82 41.65-1.28L41.65-1.28Q41.65-0.89 41.83-0.7 42.02-0.52 42.28-0.52L42.28-0.52Q43.13-0.52 44.14-1.71 45.14-2.89 45.95-4.5L45.95-4.5 46.39-4.14Q45.45-1.98 44.32-0.73 43.19 0.52 41.73 0.52L41.73 0.52ZM47.07 0.78Q46.21 0.78 45.53 0.18 44.85-0.42 44.85-1.56L44.85-1.56Q44.85-3.02 45.97-4.93 47.09-6.85 48.81-8.2 50.53-9.55 52.25-9.55L52.25-9.55Q53.52-9.55 53.52-8.72L53.52-8.72Q53.52-8.3 53.21-8.12L53.21-8.12Q53-8.41 52.3-8.41L52.3-8.41Q50.97-8.41 49.77-7.25 48.58-6.09 47.83-4.53 47.09-2.97 47.09-1.93L47.09-1.93Q47.09-1.41 47.3-1.12 47.51-0.83 47.92-0.83L47.92-0.83Q48.65-0.83 49.63-1.68 50.61-2.53 51.63-4.09 52.66-5.65 53.47-7.73L53.47-7.73Q55.5-12.94 56.91-15.84 58.31-18.74 59.35-18.74L59.35-18.74Q59.64-18.74 59.86-18.52 60.08-18.3 60.08-17.96L60.08-17.96Q60.08-17.52 59.68-16.61 59.27-15.7 58.31-13.74L58.31-13.74Q56.41-9.89 55.29-7.02 54.17-4.14 54.17-1.8L54.17-1.8Q54.17-1.17 54.29-0.95 54.41-0.73 54.69-0.73L54.69-0.73Q55.58-0.73 56.72-1.77 57.87-2.81 58.73-4.58L58.73-4.58 59.22-4.17Q58.36-2.03 56.85-0.68 55.34 0.68 53.86 0.68L53.86 0.68Q52.84 0.68 52.4 0.05 51.96-0.57 51.96-1.59L51.96-1.59Q51.96-2.19 52.17-3.28L52.17-3.28Q50.89-1.43 49.54-0.33 48.18 0.78 47.07 0.78L47.07 0.78ZM59.51 1.22Q58.6 1.22 57.99 0.62 57.37 0.03 57.37-1.07L57.37-1.07Q57.37-2.58 58.48-4.45 59.59-6.33 61.3-7.63 63.02-8.93 64.74-8.93L64.74-8.93Q65.89-8.93 66.65-8.34 67.42-7.76 67.42-6.85L67.42-6.85Q67.42-5.65 65.94-5.6L65.94-5.6Q66.88-5.31 66.88-4.82L66.88-4.82Q66.88-4.63 66.69-4.27 66.51-3.9 66.28-3.51L66.28-3.51Q65.86-2.84 65.63-2.33 65.39-1.82 65.39-1.38L65.39-1.38Q65.39-0.99 65.59-0.72 65.78-0.44 66.17-0.44L66.17-0.44Q66.9-0.44 68.03-1.46 69.17-2.47 70.23-4.5L70.23-4.5 70.73-4.01Q69.76-1.85 68.33-0.53 66.9 0.78 65.44 0.78L65.44 0.78Q64.4 0.78 63.84 0.09 63.28-0.6 63.28-1.48L63.28-1.48Q62.11-0.08 61.28 0.57 60.45 1.22 59.51 1.22L59.51 1.22ZM60.05-0.1Q60.97-0.1 62.18-1.42 63.39-2.73 64.92-4.84L64.92-4.84 65.44-5.54Q65.52-5.67 65.65-5.67L65.65-5.67 65.76-5.65Q65.89-6.07 65.89-6.61L65.89-6.61Q65.89-7.97 64.79-7.97L64.79-7.97Q63.65-7.97 62.4-6.74 61.15-5.52 60.3-3.83 59.46-2.13 59.46-0.94L59.46-0.94Q59.46-0.49 59.6-0.3 59.74-0.1 60.05-0.1L60.05-0.1ZM71.98 1.2Q70.78 1.2 70.1 0.51 69.43-0.18 69.43-1.54L69.43-1.54Q69.43-2.55 69.82-4.13 70.21-5.7 70.86-7.47L70.86-7.47Q70.18-7.6 69.95-7.71L69.95-7.71 69.95-8.51Q70.57-8.43 71.2-8.38L71.2-8.38Q72.37-11.32 73.71-13.43 75.05-15.54 75.88-15.54L75.88-15.54Q76.17-15.54 76.39-15.33 76.61-15.12 76.61-14.79L76.61-14.79Q76.61-14.37 76.25-13.67 75.88-12.96 75.05-11.53L75.05-11.53Q73.9-9.61 73.25-8.3L73.25-8.3Q76.25-8.3 78.02-8.49L78.02-8.49 78.02-7.63Q74.95-7.31 72.78-7.31L72.78-7.31Q71.43-4.11 71.43-2.08L71.43-2.08Q71.43-1.02 71.77-0.57 72.11-0.13 72.84-0.13L72.84-0.13Q74.14-0.13 75.5-1.31 76.87-2.5 77.89-4.53L77.89-4.53 78.25-4.27Q77.18-1.85 75.49-0.33 73.8 1.2 71.98 1.2L71.98 1.2ZM82.26-10.96Q81.71-10.96 81.34-11.22 80.96-11.48 80.96-11.97L80.96-11.97Q80.96-12.57 81.62-13.03 82.29-13.48 83.04-13.48L83.04-13.48Q84.16-13.48 84.16-12.52L84.16-12.52Q84.16-11.97 83.56-11.47 82.96-10.96 82.26-10.96L82.26-10.96ZM79.19 0.78Q78.09 0.78 77.5 0.13 76.9-0.52 76.9-1.54L76.9-1.54Q76.9-2.58 77.48-4.36 78.07-6.14 78.97-7.5 79.87-8.85 80.78-8.85L80.78-8.85Q81.11-8.85 81.34-8.66 81.56-8.46 81.56-8.1L81.56-8.1Q81.56-7.86 81.35-7.46 81.14-7.05 80.67-6.3L80.67-6.3Q79.84-4.92 79.36-3.87 78.88-2.81 78.88-1.87L78.88-1.87Q78.88-1.07 79.16-0.78 79.45-0.49 80.05-0.49L80.05-0.49Q82.1-0.49 84.13-4.48L84.13-4.48 84.52-4.06Q83.61-1.77 82.21-0.49 80.8 0.78 79.19 0.78L79.19 0.78ZM85.18 0.83Q84.11 0.83 83.63 0.13 83.15-0.57 83.15-1.61L83.15-1.61Q83.15-2.71 83.6-3.88 84.06-5.05 84.78-5.83 85.51-6.61 86.27-6.61L86.27-6.61Q86.58-6.61 87.08-6.4L87.08-6.4Q87.23-7.6 87.92-8.38 88.61-9.16 89.86-9.16L89.86-9.16Q90.9-9.16 91.4-8.58 91.89-7.99 91.89-7.05L91.89-7.05Q91.89-6.14 91.41-4.97 90.93-3.8 90.17-2.63L90.17-2.63Q90.49-2.47 90.9-2.47L90.9-2.47Q91.63-2.47 92.46-2.95 93.3-3.44 93.74-4.43L93.74-4.43 94.21-4.09Q93.66-2.84 92.74-2.19 91.81-1.54 90.82-1.54L90.82-1.54Q90.23-1.54 89.52-1.77L89.52-1.77Q88.56-0.62 87.41 0.1 86.27 0.83 85.18 0.83L85.18 0.83ZM89.29-3.18Q89.94-4.14 90.37-5.18 90.8-6.22 90.8-7.05L90.8-7.05Q90.8-8.2 90.07-8.2L90.07-8.2Q89.73-8.2 89.37-7.86 89-7.52 88.77-6.96 88.53-6.4 88.53-5.73L88.53-5.73Q88.53-5.13 88.74-4.36 88.95-3.59 89.29-3.18L89.29-3.18ZM86.11-0.49Q86.58-0.49 87.26-1.02 87.93-1.54 88.61-2.34L88.61-2.34Q87.13-3.64 87.05-6.17L87.05-6.17Q86.74-6.01 86.29-5.21 85.85-4.4 85.54-3.41 85.23-2.42 85.23-1.69L85.23-1.69Q85.23-0.49 86.11-0.49L86.11-0.49ZM101.91 0.52Q100.92 0.52 100.38 0.03 99.83-0.47 99.83-1.28L99.83-1.28Q99.83-1.61 99.95-2.06 100.07-2.5 100.2-2.94L100.2-2.94Q100.56-4.14 100.56-4.71L100.56-4.71Q100.56-5.23 100.3-5.48 100.04-5.73 99.65-5.73L99.65-5.73Q98.27-5.73 96.86-4 95.46-2.26 93.84 0.39L93.84 0.39Q92.72 0.39 92.15-0.36L92.15-0.36 92.39-1.02Q93.92-4.74 93.92-6.53L93.92-6.53Q94.13-6.77 94.52-6.96 94.91-7.16 95.28-7.16L95.28-7.16Q95.72-7.16 95.95-6.95 96.19-6.74 96.19-6.38L96.19-6.38Q96.19-5.67 95.74-4.06L95.74-4.06Q96.92-5.62 98.18-6.61 99.44-7.6 100.66-7.6L100.66-7.6Q101.71-7.6 102.28-6.89 102.85-6.17 102.85-5.18L102.85-5.18Q102.85-4.61 102.71-4.09 102.56-3.57 102.28-2.92L102.28-2.92Q101.84-1.82 101.84-1.28L101.84-1.28Q101.84-0.89 102.02-0.7 102.2-0.52 102.46-0.52L102.46-0.52Q103.32-0.52 104.32-1.71 105.32-2.89 106.13-4.5L106.13-4.5 106.57-4.14Q105.64-1.98 104.5-0.73 103.37 0.52 101.91 0.52L101.91 0.52Z" transform="translate(-1.9000000953674316, 18.739999771118164)"></path></g> <!----> <!----> <!----> <!----> <!----> <!----> <!----></g></g> <g data-gra="path-slogan" fill-rule="" class="tp-slogan iconsvg-slogansvg" fill="url(#7e8663c9-2584-4289-9350-654fef837080)" transform="matrix(0.9860228517194934,0,0,0.9860228517194934,21.659829446347963,28.047522302154274)" opacity="1"><!----> <!----> <g transform="scale(1, 1)"><g transform="scale(1)"><path d="M0.90 0L0.90-6.56L1.73-6.56L1.73-0.71L4.60-0.71L4.60 0L0.90 0ZM5.76 0L5.76-6.56L6.59-6.56L6.59 0L5.76 0ZM9.75 0L9.75-5.86L7.77-5.86L7.77-6.56L12.57-6.56L12.57-5.86L10.59-5.86L10.59 0L9.75 0ZM15.11 0L15.11-5.86L13.13-5.86L13.13-6.56L17.93-6.56L17.93-5.86L15.95-5.86L15.95 0L15.11 0ZM19.11 0L19.11-6.56L19.94-6.56L19.94-0.71L22.81-0.71L22.81 0L19.11 0ZM23.97 0L23.97-6.56L27.75-6.56L27.75-5.86L24.80-5.86L24.80-3.80L27.29-3.80L27.29-3.09L24.80-3.09L24.80-0.71L27.85-0.71L27.85 0L23.97 0ZM31.26 0L31.26-6.56L32.09-6.56L32.09-3.81L35.14-3.81L35.14-6.56L35.98-6.56L35.98 0L35.14 0L35.14-3.09L32.09-3.09L32.09 0L31.26 0ZM37.78 0L37.78-6.56L41.56-6.56L41.56-5.86L38.61-5.86L38.61-3.80L41.10-3.80L41.10-3.09L38.61-3.09L38.61-0.71L41.66-0.71L41.66 0L37.78 0ZM43.87-2.67L45.84-2.67L45.53-3.67Q45.35-4.22 45.19-4.76Q45.03-5.31 44.87-5.88L44.87-5.88L44.83-5.88Q44.68-5.31 44.52-4.76Q44.36-4.22 44.18-3.67L44.18-3.67L43.87-2.67ZM46.67 0L46.05-2L43.66-2L43.03 0L42.18 0L44.40-6.56L45.34-6.56L47.56 0L46.67 0ZM49.32-5.89L49.32-3.45L50.42-3.45Q51.19-3.45 51.60-3.77Q52.01-4.08 52.01-4.72L52.01-4.72Q52.01-5.37 51.60-5.63Q51.19-5.89 50.42-5.89L50.42-5.89L49.32-5.89ZM53.03 0L52.09 0L50.51-2.77L49.32-2.77L49.32 0L48.49 0L48.49-6.56L50.54-6.56Q51.04-6.56 51.47-6.46Q51.89-6.37 52.20-6.15Q52.50-5.93 52.67-5.58Q52.84-5.23 52.84-4.72L52.84-4.72Q52.84-3.95 52.44-3.49Q52.04-3.03 51.37-2.86L51.37-2.86L53.03 0ZM55.46 0L55.46-5.86L53.48-5.86L53.48-6.56L58.28-6.56L58.28-5.86L56.30-5.86L56.30 0L55.46 0ZM58.59-0.85L59.09-1.43Q59.44-1.06 59.91-0.83Q60.39-0.61 60.90-0.61L60.90-0.61Q61.55-0.61 61.91-0.91Q62.27-1.20 62.27-1.68L62.27-1.68Q62.27-1.93 62.19-2.10Q62.10-2.28 61.95-2.41Q61.81-2.53 61.61-2.63Q61.41-2.73 61.18-2.84L61.18-2.84L60.24-3.25Q60.01-3.35 59.77-3.49Q59.53-3.63 59.34-3.83Q59.15-4.03 59.03-4.30Q58.91-4.58 58.91-4.94L58.91-4.94Q58.91-5.31 59.07-5.63Q59.22-5.95 59.50-6.19Q59.77-6.42 60.15-6.55Q60.52-6.68 60.97-6.68L60.97-6.68Q61.56-6.68 62.06-6.46Q62.56-6.23 62.91-5.87L62.91-5.87L62.46-5.33Q62.16-5.62 61.80-5.79Q61.43-5.95 60.97-5.95L60.97-5.95Q60.42-5.95 60.09-5.70Q59.75-5.44 59.75-4.99L59.75-4.99Q59.75-4.75 59.84-4.58Q59.94-4.42 60.10-4.29Q60.26-4.17 60.45-4.08Q60.64-3.98 60.84-3.90L60.84-3.90L61.77-3.50Q62.05-3.38 62.30-3.23Q62.55-3.07 62.73-2.87Q62.91-2.66 63.02-2.39Q63.12-2.11 63.12-1.75L63.12-1.75Q63.12-1.36 62.97-1.02Q62.81-0.68 62.52-0.42Q62.23-0.17 61.82-0.03Q61.41 0.12 60.89 0.12L60.89 0.12Q60.20 0.12 59.61-0.14Q59.02-0.40 58.59-0.85L58.59-0.85Z" transform="translate(-0.9, 6.68)"></path></g></g></g></g></g></g></mask></svg>